<svg width="46" height="56" viewBox="0 0 46 56" fill="none" xmlns="http://www.w3.org/2000/svg">
<path d="M23.0003 27.9725C26.7309 27.9725 30.9075 27.5595 33.5726 24.5145C35.8137 21.954 36.5405 17.9949 35.7916 12.4224C34.7454 4.64464 29.9631 0 23.0003 0C16.0375 0 11.2552 4.64464 10.209 12.4279C9.46009 17.9949 10.1869 21.954 12.428 24.5145C15.0931 27.5622 19.2697 27.9725 23.0003 27.9725ZM14.3002 12.9731C14.7462 9.66922 16.467 4.12979 23.0003 4.12979C29.5336 4.12979 31.2544 9.67198 31.7004 12.9731C32.2703 17.2405 31.8573 20.2057 30.4615 21.7971C29.2088 23.2287 26.9759 23.8427 23.0003 23.8427C19.0247 23.8427 16.7918 23.2287 15.5391 21.7971C14.1433 20.2057 13.7303 17.2378 14.3002 12.9731ZM45.7968 48.4012C43.3822 38.6934 34.0076 31.9095 23.0003 31.9095C11.993 31.9095 2.6184 38.6934 0.203843 48.4012C-0.269706 50.3064 0.126753 52.2557 1.29135 53.7424C2.41466 55.174 4.15468 56 6.06264 56H39.938C41.8459 56 43.5859 55.174 44.7092 53.7424C45.8766 52.2557 46.2703 50.3091 45.794 48.4012H45.7968ZM41.4577 51.1984C41.1108 51.6389 40.5877 51.8757 39.938 51.8757H6.06264C5.41564 51.8757 4.88978 51.6417 4.54288 51.1984C4.16569 50.7194 4.0473 50.0641 4.2125 49.3978C6.16726 41.5375 13.8955 36.0448 23.0003 36.0448C32.1051 36.0448 39.8333 41.5347 41.7881 49.3978C41.9533 50.0641 41.8349 50.7194 41.4577 51.1984Z" fill="white"/>
</svg>
