<svg width="22" height="25" viewBox="0 0 22 25" fill="none" xmlns="http://www.w3.org/2000/svg">
<path d="M16.4763 11.3006C16.3703 11.2502 16.2626 11.2018 16.1535 11.1554C15.9635 7.6877 14.0509 5.70245 10.8394 5.68214C10.8249 5.68205 10.8104 5.68205 10.7958 5.68205C8.87494 5.68205 7.27735 6.49435 6.29405 7.97248L8.06028 9.17279C8.79485 8.06868 9.94767 7.83331 10.7967 7.83331C10.8065 7.83331 10.8163 7.83331 10.826 7.8334C11.8835 7.84008 12.6814 8.14466 13.1979 8.73864C13.5737 9.17108 13.8251 9.76865 13.9495 10.5228C13.012 10.365 11.9981 10.3164 10.9141 10.378C7.86079 10.5522 5.89784 12.3164 6.02968 14.7678C6.09658 16.0113 6.72188 17.0811 7.79033 17.7799C8.69368 18.3707 9.85715 18.6596 11.0663 18.5942C12.6632 18.5074 13.9159 17.9038 14.7899 16.8002C15.4536 15.962 15.8734 14.8759 16.0588 13.5073C16.8198 13.9623 17.3838 14.5611 17.6953 15.2809C18.2249 16.5044 18.2558 18.515 16.5998 20.1542C15.1489 21.5902 13.4049 22.2114 10.7691 22.2306C7.84534 22.2092 5.63413 21.2802 4.19647 19.4696C2.85021 17.7742 2.15446 15.3253 2.12851 12.191C2.15446 9.0566 2.85021 6.60771 4.19647 4.91229C5.63413 3.1017 7.8453 2.17279 10.7691 2.15126C13.7141 2.17295 15.9638 3.10634 17.4565 4.92566C18.1884 5.81784 18.7402 6.93981 19.104 8.24799L21.1738 7.70091C20.7328 6.09069 20.039 4.70314 19.0948 3.5524C17.1811 1.21995 14.3824 0.0247817 10.7763 0H10.7619C7.16308 0.0246956 4.39567 1.22441 2.53653 3.56577C0.882143 5.6493 0.0287643 8.54837 8.97278e-05 12.1824L0 12.191L8.97278e-05 12.1995C0.0287643 15.8335 0.882143 18.7327 2.53653 20.8162C4.39567 23.1575 7.16308 24.3573 10.7619 24.3819H10.7763C13.9758 24.36 16.2311 23.5301 18.0889 21.6912C20.5197 19.2854 20.4465 16.2697 19.6453 14.4185C19.0706 13.0909 17.9747 12.0127 16.4763 11.3006ZM10.952 16.446C9.6138 16.5207 8.22351 15.9256 8.15496 14.651C8.10414 13.706 8.83384 12.6514 11.0342 12.5258C11.2861 12.5114 11.5334 12.5044 11.7763 12.5044C12.5755 12.5044 13.3232 12.5813 14.003 12.7285C13.7494 15.8654 12.2622 16.3748 10.952 16.446Z" fill="white"/>
</svg>
