<svg width="19" height="22" viewBox="0 0 19 22" fill="none" xmlns="http://www.w3.org/2000/svg">
<path d="M18.0689 21.9993C17.8975 21.9993 17.7283 21.9448 17.5864 21.8421L9.44389 15.916L1.3014 21.8443C1.05247 22.0234 0.722758 22.0517 0.447629 21.9098C0.174685 21.7712 0 21.4895 0 21.1816V2.4565C0 1.1027 1.1027 0 2.4565 0H16.4291C17.7829 0 18.8856 1.1027 18.8856 2.4565V21.1805C18.8856 21.4884 18.7131 21.7701 18.438 21.9098C18.3222 21.9699 18.1945 21.9993 18.0668 21.9993H18.0689ZM9.44389 14.0839C9.61311 14.0839 9.78234 14.1364 9.92427 14.2412L17.2501 19.5723V2.4565C17.2501 2.00669 16.8822 1.63767 16.4313 1.63767H2.4565C2.0056 1.63767 1.63767 2.00669 1.63767 2.4565V19.5723L8.96351 14.2412C9.10544 14.1364 9.27466 14.0839 9.44389 14.0839Z" fill="white"/>
</svg>
