<svg width="25" height="26" viewBox="0 0 25 26" fill="none" xmlns="http://www.w3.org/2000/svg">
<path d="M22.2857 0H3.71429C2.68821 0 1.85714 0.831071 1.85714 1.85714V3.71429H0.928571C0.416 3.71429 0 4.13029 0 4.64286C0 5.15543 0.416 5.57143 0.928571 5.57143C2.59536 5.57143 -0.134643 5.57143 3.71429 5.57143C4.22686 5.57143 4.64286 5.98743 4.64286 6.5C4.64286 7.01257 4.22686 7.42857 3.71429 7.42857H1.85714V18.5714H0.928571C0.416 18.5714 0 18.9874 0 19.5C0 20.0126 0.416 20.4286 0.928571 20.4286C2.59536 20.4286 -0.134643 20.4286 3.71429 20.4286C4.22686 20.4286 4.64286 20.8446 4.64286 21.3571C4.64286 21.8697 4.22686 22.2857 3.71429 22.2857H1.85714V24.1429C1.85714 25.1689 2.68821 26 3.71429 26H22.2857C23.3118 26 24.1429 25.1689 24.1429 24.1429V1.85714C24.1429 0.831071 23.3118 0 22.2857 0ZM13 4.64286C15.0512 4.64286 16.7143 6.30593 16.7143 8.35714C16.7143 10.4084 15.0512 12.0714 13 12.0714C10.9488 12.0714 9.28571 10.4084 9.28571 8.35714C9.28571 6.30593 10.9488 4.64286 13 4.64286ZM18.5714 20.4286H7.42857V18.5714C7.42857 15.4941 9.92271 13 13 13C16.0773 13 18.5714 15.4941 18.5714 18.5714V20.4286Z" fill="white"/>
</svg>
