<svg width="22" height="24" viewBox="0 0 22 24" fill="none" xmlns="http://www.w3.org/2000/svg">
<mask id="path-1-outside-1_41_28931" maskUnits="userSpaceOnUse" x="0" y="0" width="22" height="24" fill="black">
<rect fill="white" width="22" height="24"/>
<path d="M6.38462 2.13793C5.31964 2.13793 4.27858 2.44938 3.39309 3.03289C2.50759 3.61639 1.81743 4.44576 1.40988 5.41609C1.00233 6.38643 0.8957 7.45417 1.10347 8.48427C1.31123 9.51438 1.82407 10.4606 2.57712 11.2033C3.33017 11.9459 4.28962 12.4517 5.33413 12.6566C6.37864 12.8615 7.46131 12.7563 8.44522 12.3544C9.42913 11.9525 10.2701 11.2718 10.8618 10.3985C11.4534 9.52526 11.7692 8.49856 11.7692 7.44828C11.7692 6.03988 11.2019 4.68918 10.1921 3.6933C9.1823 2.69741 7.81271 2.13793 6.38462 2.13793ZM6.38462 12C5.47178 12 4.57944 11.733 3.82045 11.2329C3.06145 10.7327 2.46989 10.0219 2.12056 9.19015C1.77123 8.35843 1.67983 7.44323 1.85792 6.56028C2.036 5.67733 2.47557 4.86629 3.12105 4.22972C3.76652 3.59315 4.5889 3.15964 5.4842 2.98401C6.3795 2.80838 7.3075 2.89852 8.15085 3.24303C8.9942 3.58754 9.71502 4.17095 10.2222 4.91947C10.7293 5.668 11 6.54803 11 7.44828C11 8.65547 10.5137 9.81322 9.64819 10.6668C8.78263 11.5204 7.60869 12 6.38462 12ZM8.30769 8.58621C8.30769 9.58 7.44616 9.9669 6.76923 10.0693V10.8621H6V10.0807C5.61482 10.0345 5.25282 9.87453 4.96154 9.62172L4.68846 9.35621L5.23077 8.81759L5.50385 9.0869C5.76394 9.25934 6.07124 9.34933 6.38462 9.34483C6.42692 9.34483 7.53846 9.32586 7.53846 8.58621C7.53846 8.34345 7.18462 8.2069 6.59616 7.99828C5.84616 7.75172 4.84616 7.40276 4.84616 6.31034C4.83381 6.10834 4.8727 5.90649 4.95933 5.72304C5.04596 5.53959 5.17759 5.38033 5.34231 5.25965C5.53998 5.13115 5.76505 5.04938 6 5.02069V4.03448H6.76923V5.00172C7.0724 5.03503 7.37137 5.09857 7.66154 5.19138L8.02692 5.30897L7.78462 6.02965L7.40769 5.93103C7.06545 5.82408 6.709 5.76784 6.35 5.76414H6.32308C6.13315 5.75625 5.94491 5.80233 5.78077 5.8969C5.72157 5.94765 5.67563 6.01172 5.64684 6.08369C5.61805 6.15565 5.60726 6.2334 5.61539 6.31034C5.61539 6.81483 6.08462 7.01586 6.85 7.28138C7.48846 7.51655 8.30769 7.79724 8.30769 8.58621ZM15.6154 11.2414C14.5504 11.2414 13.5093 11.5528 12.6239 12.1363C11.7384 12.7198 11.0482 13.5492 10.6406 14.5195C10.2331 15.4899 10.1265 16.5576 10.3342 17.5877C10.542 18.6178 11.0548 19.564 11.8079 20.3067C12.5609 21.0494 13.5204 21.5551 14.5649 21.76C15.6094 21.9649 16.6921 21.8598 17.676 21.4578C18.6599 21.0559 19.5009 20.3753 20.0925 19.502C20.6842 18.6287 21 17.602 21 16.5517C21 15.1433 20.4327 13.7926 19.4229 12.7967C18.4131 11.8009 17.0435 11.2414 15.6154 11.2414ZM15.6154 21.1034C14.7025 21.1034 13.8102 20.8365 13.0512 20.3363C12.2922 19.8362 11.7007 19.1253 11.3513 18.2936C11.002 17.4619 10.9106 16.5467 11.0887 15.6637C11.2668 14.7808 11.7063 13.9697 12.3518 13.3332C12.9973 12.6966 13.8197 12.2631 14.715 12.0875C15.6103 11.9118 16.5383 12.002 17.3816 12.3465C18.225 12.691 18.9458 13.2744 19.4529 14.0229C19.9601 14.7714 20.2308 15.6515 20.2308 16.5517C20.2308 17.7589 19.7445 18.9167 18.879 19.7703C18.0134 20.6239 16.8395 21.1034 15.6154 21.1034ZM14.2462 15.2203C14.0825 15.39 13.9521 15.588 13.8615 15.8045H15.6154V16.5631H13.6923C13.6929 16.6907 13.7071 16.8178 13.7346 16.9424H15.6154V17.701H14.0769C14.1289 17.7715 14.1854 17.8387 14.2462 17.9021C14.6068 18.2576 15.0958 18.4574 15.6058 18.4574C16.1157 18.4574 16.6048 18.2576 16.9654 17.9021L17.2385 17.6328L17.7808 18.1714L17.5077 18.4369C17.2583 18.6854 16.9616 18.8828 16.6347 19.0179C16.3077 19.153 15.9569 19.2231 15.6024 19.2242C15.2479 19.2252 14.8967 19.1572 14.5689 19.0241C14.2411 18.8909 13.9432 18.6953 13.6923 18.4483C13.4751 18.2284 13.3005 17.9713 13.1769 17.6897H12.5385V16.931H12.9538C12.936 16.8053 12.9257 16.6787 12.9231 16.5517H12.5385V15.7931H13.0385C13.1599 15.3622 13.3933 14.97 13.7154 14.6552C14.2201 14.1583 14.9042 13.8793 15.6173 13.8793C16.3305 13.8793 17.0145 14.1583 17.5192 14.6552L17.7923 14.9207L17.2385 15.4897L16.9654 15.2203C16.6048 14.8648 16.1157 14.6651 15.6058 14.6651C15.0958 14.6651 14.6068 14.8648 14.2462 15.2203ZM8.99616 20.5307L8.94616 20.5914L8.99616 20.6483L8.72692 20.8607L6.97692 23L6.38462 22.5334L7.67308 20.9441C1.61539 20.6824 1.53846 14.5717 1.53846 14.4959V14.1166H2.30769V14.4959C2.30769 14.7197 2.38846 19.9048 7.65385 20.1855L6.38462 18.6228L6.98462 18.1486L8.73462 20.3107L8.99616 20.5307ZM13.0038 3.48069L13.0538 3.42L13.0038 3.3631L13.2731 3.15069L15.0231 1L15.6154 1.46655L14.3346 3.05586C20.3923 3.31759 20.4692 9.42828 20.4692 9.50414V9.88345H19.7V9.50414C19.7 9.28034 19.6192 4.09517 14.3538 3.81448L15.6154 5.37724L15.0154 5.85138L13.2654 3.68931L13.0038 3.48069Z"/>
</mask>
<path d="M6.38462 2.13793C5.31964 2.13793 4.27858 2.44938 3.39309 3.03289C2.50759 3.61639 1.81743 4.44576 1.40988 5.41609C1.00233 6.38643 0.8957 7.45417 1.10347 8.48427C1.31123 9.51438 1.82407 10.4606 2.57712 11.2033C3.33017 11.9459 4.28962 12.4517 5.33413 12.6566C6.37864 12.8615 7.46131 12.7563 8.44522 12.3544C9.42913 11.9525 10.2701 11.2718 10.8618 10.3985C11.4534 9.52526 11.7692 8.49856 11.7692 7.44828C11.7692 6.03988 11.2019 4.68918 10.1921 3.6933C9.1823 2.69741 7.81271 2.13793 6.38462 2.13793ZM6.38462 12C5.47178 12 4.57944 11.733 3.82045 11.2329C3.06145 10.7327 2.46989 10.0219 2.12056 9.19015C1.77123 8.35843 1.67983 7.44323 1.85792 6.56028C2.036 5.67733 2.47557 4.86629 3.12105 4.22972C3.76652 3.59315 4.5889 3.15964 5.4842 2.98401C6.3795 2.80838 7.3075 2.89852 8.15085 3.24303C8.9942 3.58754 9.71502 4.17095 10.2222 4.91947C10.7293 5.668 11 6.54803 11 7.44828C11 8.65547 10.5137 9.81322 9.64819 10.6668C8.78263 11.5204 7.60869 12 6.38462 12ZM8.30769 8.58621C8.30769 9.58 7.44616 9.9669 6.76923 10.0693V10.8621H6V10.0807C5.61482 10.0345 5.25282 9.87453 4.96154 9.62172L4.68846 9.35621L5.23077 8.81759L5.50385 9.0869C5.76394 9.25934 6.07124 9.34933 6.38462 9.34483C6.42692 9.34483 7.53846 9.32586 7.53846 8.58621C7.53846 8.34345 7.18462 8.2069 6.59616 7.99828C5.84616 7.75172 4.84616 7.40276 4.84616 6.31034C4.83381 6.10834 4.8727 5.90649 4.95933 5.72304C5.04596 5.53959 5.17759 5.38033 5.34231 5.25965C5.53998 5.13115 5.76505 5.04938 6 5.02069V4.03448H6.76923V5.00172C7.0724 5.03503 7.37137 5.09857 7.66154 5.19138L8.02692 5.30897L7.78462 6.02965L7.40769 5.93103C7.06545 5.82408 6.709 5.76784 6.35 5.76414H6.32308C6.13315 5.75625 5.94491 5.80233 5.78077 5.8969C5.72157 5.94765 5.67563 6.01172 5.64684 6.08369C5.61805 6.15565 5.60726 6.2334 5.61539 6.31034C5.61539 6.81483 6.08462 7.01586 6.85 7.28138C7.48846 7.51655 8.30769 7.79724 8.30769 8.58621ZM15.6154 11.2414C14.5504 11.2414 13.5093 11.5528 12.6239 12.1363C11.7384 12.7198 11.0482 13.5492 10.6406 14.5195C10.2331 15.4899 10.1265 16.5576 10.3342 17.5877C10.542 18.6178 11.0548 19.564 11.8079 20.3067C12.5609 21.0494 13.5204 21.5551 14.5649 21.76C15.6094 21.9649 16.6921 21.8598 17.676 21.4578C18.6599 21.0559 19.5009 20.3753 20.0925 19.502C20.6842 18.6287 21 17.602 21 16.5517C21 15.1433 20.4327 13.7926 19.4229 12.7967C18.4131 11.8009 17.0435 11.2414 15.6154 11.2414ZM15.6154 21.1034C14.7025 21.1034 13.8102 20.8365 13.0512 20.3363C12.2922 19.8362 11.7007 19.1253 11.3513 18.2936C11.002 17.4619 10.9106 16.5467 11.0887 15.6637C11.2668 14.7808 11.7063 13.9697 12.3518 13.3332C12.9973 12.6966 13.8197 12.2631 14.715 12.0875C15.6103 11.9118 16.5383 12.002 17.3816 12.3465C18.225 12.691 18.9458 13.2744 19.4529 14.0229C19.9601 14.7714 20.2308 15.6515 20.2308 16.5517C20.2308 17.7589 19.7445 18.9167 18.879 19.7703C18.0134 20.6239 16.8395 21.1034 15.6154 21.1034ZM14.2462 15.2203C14.0825 15.39 13.9521 15.588 13.8615 15.8045H15.6154V16.5631H13.6923C13.6929 16.6907 13.7071 16.8178 13.7346 16.9424H15.6154V17.701H14.0769C14.1289 17.7715 14.1854 17.8387 14.2462 17.9021C14.6068 18.2576 15.0958 18.4574 15.6058 18.4574C16.1157 18.4574 16.6048 18.2576 16.9654 17.9021L17.2385 17.6328L17.7808 18.1714L17.5077 18.4369C17.2583 18.6854 16.9616 18.8828 16.6347 19.0179C16.3077 19.153 15.9569 19.2231 15.6024 19.2242C15.2479 19.2252 14.8967 19.1572 14.5689 19.0241C14.2411 18.8909 13.9432 18.6953 13.6923 18.4483C13.4751 18.2284 13.3005 17.9713 13.1769 17.6897H12.5385V16.931H12.9538C12.936 16.8053 12.9257 16.6787 12.9231 16.5517H12.5385V15.7931H13.0385C13.1599 15.3622 13.3933 14.97 13.7154 14.6552C14.2201 14.1583 14.9042 13.8793 15.6173 13.8793C16.3305 13.8793 17.0145 14.1583 17.5192 14.6552L17.7923 14.9207L17.2385 15.4897L16.9654 15.2203C16.6048 14.8648 16.1157 14.6651 15.6058 14.6651C15.0958 14.6651 14.6068 14.8648 14.2462 15.2203ZM8.99616 20.5307L8.94616 20.5914L8.99616 20.6483L8.72692 20.8607L6.97692 23L6.38462 22.5334L7.67308 20.9441C1.61539 20.6824 1.53846 14.5717 1.53846 14.4959V14.1166H2.30769V14.4959C2.30769 14.7197 2.38846 19.9048 7.65385 20.1855L6.38462 18.6228L6.98462 18.1486L8.73462 20.3107L8.99616 20.5307ZM13.0038 3.48069L13.0538 3.42L13.0038 3.3631L13.2731 3.15069L15.0231 1L15.6154 1.46655L14.3346 3.05586C20.3923 3.31759 20.4692 9.42828 20.4692 9.50414V9.88345H19.7V9.50414C19.7 9.28034 19.6192 4.09517 14.3538 3.81448L15.6154 5.37724L15.0154 5.85138L13.2654 3.68931L13.0038 3.48069Z" fill="white"/>
<path d="M6.38462 2.13793C5.31964 2.13793 4.27858 2.44938 3.39309 3.03289C2.50759 3.61639 1.81743 4.44576 1.40988 5.41609C1.00233 6.38643 0.8957 7.45417 1.10347 8.48427C1.31123 9.51438 1.82407 10.4606 2.57712 11.2033C3.33017 11.9459 4.28962 12.4517 5.33413 12.6566C6.37864 12.8615 7.46131 12.7563 8.44522 12.3544C9.42913 11.9525 10.2701 11.2718 10.8618 10.3985C11.4534 9.52526 11.7692 8.49856 11.7692 7.44828C11.7692 6.03988 11.2019 4.68918 10.1921 3.6933C9.1823 2.69741 7.81271 2.13793 6.38462 2.13793ZM6.38462 12C5.47178 12 4.57944 11.733 3.82045 11.2329C3.06145 10.7327 2.46989 10.0219 2.12056 9.19015C1.77123 8.35843 1.67983 7.44323 1.85792 6.56028C2.036 5.67733 2.47557 4.86629 3.12105 4.22972C3.76652 3.59315 4.5889 3.15964 5.4842 2.98401C6.3795 2.80838 7.3075 2.89852 8.15085 3.24303C8.9942 3.58754 9.71502 4.17095 10.2222 4.91947C10.7293 5.668 11 6.54803 11 7.44828C11 8.65547 10.5137 9.81322 9.64819 10.6668C8.78263 11.5204 7.60869 12 6.38462 12ZM8.30769 8.58621C8.30769 9.58 7.44616 9.9669 6.76923 10.0693V10.8621H6V10.0807C5.61482 10.0345 5.25282 9.87453 4.96154 9.62172L4.68846 9.35621L5.23077 8.81759L5.50385 9.0869C5.76394 9.25934 6.07124 9.34933 6.38462 9.34483C6.42692 9.34483 7.53846 9.32586 7.53846 8.58621C7.53846 8.34345 7.18462 8.2069 6.59616 7.99828C5.84616 7.75172 4.84616 7.40276 4.84616 6.31034C4.83381 6.10834 4.8727 5.90649 4.95933 5.72304C5.04596 5.53959 5.17759 5.38033 5.34231 5.25965C5.53998 5.13115 5.76505 5.04938 6 5.02069V4.03448H6.76923V5.00172C7.0724 5.03503 7.37137 5.09857 7.66154 5.19138L8.02692 5.30897L7.78462 6.02965L7.40769 5.93103C7.06545 5.82408 6.709 5.76784 6.35 5.76414H6.32308C6.13315 5.75625 5.94491 5.80233 5.78077 5.8969C5.72157 5.94765 5.67563 6.01172 5.64684 6.08369C5.61805 6.15565 5.60726 6.2334 5.61539 6.31034C5.61539 6.81483 6.08462 7.01586 6.85 7.28138C7.48846 7.51655 8.30769 7.79724 8.30769 8.58621ZM15.6154 11.2414C14.5504 11.2414 13.5093 11.5528 12.6239 12.1363C11.7384 12.7198 11.0482 13.5492 10.6406 14.5195C10.2331 15.4899 10.1265 16.5576 10.3342 17.5877C10.542 18.6178 11.0548 19.564 11.8079 20.3067C12.5609 21.0494 13.5204 21.5551 14.5649 21.76C15.6094 21.9649 16.6921 21.8598 17.676 21.4578C18.6599 21.0559 19.5009 20.3753 20.0925 19.502C20.6842 18.6287 21 17.602 21 16.5517C21 15.1433 20.4327 13.7926 19.4229 12.7967C18.4131 11.8009 17.0435 11.2414 15.6154 11.2414ZM15.6154 21.1034C14.7025 21.1034 13.8102 20.8365 13.0512 20.3363C12.2922 19.8362 11.7007 19.1253 11.3513 18.2936C11.002 17.4619 10.9106 16.5467 11.0887 15.6637C11.2668 14.7808 11.7063 13.9697 12.3518 13.3332C12.9973 12.6966 13.8197 12.2631 14.715 12.0875C15.6103 11.9118 16.5383 12.002 17.3816 12.3465C18.225 12.691 18.9458 13.2744 19.4529 14.0229C19.9601 14.7714 20.2308 15.6515 20.2308 16.5517C20.2308 17.7589 19.7445 18.9167 18.879 19.7703C18.0134 20.6239 16.8395 21.1034 15.6154 21.1034ZM14.2462 15.2203C14.0825 15.39 13.9521 15.588 13.8615 15.8045H15.6154V16.5631H13.6923C13.6929 16.6907 13.7071 16.8178 13.7346 16.9424H15.6154V17.701H14.0769C14.1289 17.7715 14.1854 17.8387 14.2462 17.9021C14.6068 18.2576 15.0958 18.4574 15.6058 18.4574C16.1157 18.4574 16.6048 18.2576 16.9654 17.9021L17.2385 17.6328L17.7808 18.1714L17.5077 18.4369C17.2583 18.6854 16.9616 18.8828 16.6347 19.0179C16.3077 19.153 15.9569 19.2231 15.6024 19.2242C15.2479 19.2252 14.8967 19.1572 14.5689 19.0241C14.2411 18.8909 13.9432 18.6953 13.6923 18.4483C13.4751 18.2284 13.3005 17.9713 13.1769 17.6897H12.5385V16.931H12.9538C12.936 16.8053 12.9257 16.6787 12.9231 16.5517H12.5385V15.7931H13.0385C13.1599 15.3622 13.3933 14.97 13.7154 14.6552C14.2201 14.1583 14.9042 13.8793 15.6173 13.8793C16.3305 13.8793 17.0145 14.1583 17.5192 14.6552L17.7923 14.9207L17.2385 15.4897L16.9654 15.2203C16.6048 14.8648 16.1157 14.6651 15.6058 14.6651C15.0958 14.6651 14.6068 14.8648 14.2462 15.2203ZM8.99616 20.5307L8.94616 20.5914L8.99616 20.6483L8.72692 20.8607L6.97692 23L6.38462 22.5334L7.67308 20.9441C1.61539 20.6824 1.53846 14.5717 1.53846 14.4959V14.1166H2.30769V14.4959C2.30769 14.7197 2.38846 19.9048 7.65385 20.1855L6.38462 18.6228L6.98462 18.1486L8.73462 20.3107L8.99616 20.5307ZM13.0038 3.48069L13.0538 3.42L13.0038 3.3631L13.2731 3.15069L15.0231 1L15.6154 1.46655L14.3346 3.05586C20.3923 3.31759 20.4692 9.42828 20.4692 9.50414V9.88345H19.7V9.50414C19.7 9.28034 19.6192 4.09517 14.3538 3.81448L15.6154 5.37724L15.0154 5.85138L13.2654 3.68931L13.0038 3.48069Z" stroke="white" stroke-width="0.4" mask="url(#path-1-outside-1_41_28931)"/>
</svg>
