<svg width="23" height="23" viewBox="0 0 23 23" fill="none" xmlns="http://www.w3.org/2000/svg">
<path d="M22.656 14.281C21.1195 20.445 14.8744 24.1921 8.71915 22.6555C2.55497 21.1189 -1.19206 14.8741 0.344539 8.71897C1.88105 2.55497 8.11711 -1.19206 14.2813 0.344539C20.4365 1.87206 24.1926 8.11693 22.656 14.281Z" fill="#299586"/>
<mask id="path-2-outside-1_52_38693" maskUnits="userSpaceOnUse" x="7.66669" y="3.91699" width="8" height="15" fill="black">
<rect fill="white" x="7.66669" y="3.91699" width="8" height="15"/>
<path d="M15.2187 14.052C15.2187 14.532 15.0987 14.992 14.8587 15.432C14.6187 15.862 14.2637 16.222 13.7937 16.512C13.3337 16.802 12.7787 16.967 12.1287 17.007V18.222H11.3187V17.007C10.4087 16.927 9.66866 16.637 9.09866 16.137C8.52866 15.627 8.23866 14.982 8.22866 14.202H9.68366C9.72366 14.622 9.87866 14.987 10.1487 15.297C10.4287 15.607 10.8187 15.802 11.3187 15.882V12.132C10.6487 11.962 10.1087 11.787 9.69866 11.607C9.28866 11.427 8.93866 11.147 8.64866 10.767C8.35866 10.387 8.21366 9.87699 8.21366 9.23699C8.21366 8.42699 8.49366 7.75699 9.05366 7.22699C9.62366 6.69699 10.3787 6.40199 11.3187 6.34199V5.09699H12.1287V6.34199C12.9787 6.41199 13.6637 6.68699 14.1837 7.16699C14.7037 7.63699 15.0037 8.25199 15.0837 9.01199H13.6287C13.5787 8.66199 13.4237 8.34699 13.1637 8.06699C12.9037 7.77699 12.5587 7.58699 12.1287 7.49699V11.157C12.7887 11.327 13.3237 11.502 13.7337 11.682C14.1537 11.852 14.5037 12.127 14.7837 12.507C15.0737 12.887 15.2187 13.402 15.2187 14.052ZM9.60866 9.16199C9.60866 9.65199 9.75366 10.027 10.0437 10.287C10.3337 10.547 10.7587 10.762 11.3187 10.932V7.46699C10.7987 7.51699 10.3837 7.68699 10.0737 7.97699C9.76366 8.25699 9.60866 8.65199 9.60866 9.16199ZM12.1287 15.897C12.6687 15.837 13.0887 15.642 13.3887 15.312C13.6987 14.982 13.8537 14.587 13.8537 14.127C13.8537 13.637 13.7037 13.262 13.4037 13.002C13.1037 12.732 12.6787 12.517 12.1287 12.357V15.897Z"/>
</mask>
<path d="M15.2187 14.052C15.2187 14.532 15.0987 14.992 14.8587 15.432C14.6187 15.862 14.2637 16.222 13.7937 16.512C13.3337 16.802 12.7787 16.967 12.1287 17.007V18.222H11.3187V17.007C10.4087 16.927 9.66866 16.637 9.09866 16.137C8.52866 15.627 8.23866 14.982 8.22866 14.202H9.68366C9.72366 14.622 9.87866 14.987 10.1487 15.297C10.4287 15.607 10.8187 15.802 11.3187 15.882V12.132C10.6487 11.962 10.1087 11.787 9.69866 11.607C9.28866 11.427 8.93866 11.147 8.64866 10.767C8.35866 10.387 8.21366 9.87699 8.21366 9.23699C8.21366 8.42699 8.49366 7.75699 9.05366 7.22699C9.62366 6.69699 10.3787 6.40199 11.3187 6.34199V5.09699H12.1287V6.34199C12.9787 6.41199 13.6637 6.68699 14.1837 7.16699C14.7037 7.63699 15.0037 8.25199 15.0837 9.01199H13.6287C13.5787 8.66199 13.4237 8.34699 13.1637 8.06699C12.9037 7.77699 12.5587 7.58699 12.1287 7.49699V11.157C12.7887 11.327 13.3237 11.502 13.7337 11.682C14.1537 11.852 14.5037 12.127 14.7837 12.507C15.0737 12.887 15.2187 13.402 15.2187 14.052ZM9.60866 9.16199C9.60866 9.65199 9.75366 10.027 10.0437 10.287C10.3337 10.547 10.7587 10.762 11.3187 10.932V7.46699C10.7987 7.51699 10.3837 7.68699 10.0737 7.97699C9.76366 8.25699 9.60866 8.65199 9.60866 9.16199ZM12.1287 15.897C12.6687 15.837 13.0887 15.642 13.3887 15.312C13.6987 14.982 13.8537 14.587 13.8537 14.127C13.8537 13.637 13.7037 13.262 13.4037 13.002C13.1037 12.732 12.6787 12.517 12.1287 12.357V15.897Z" fill="white"/>
<path d="M14.8587 15.432L15.1206 15.5782L15.122 15.5756L14.8587 15.432ZM13.7937 16.512L13.6361 16.2567L13.6337 16.2582L13.7937 16.512ZM12.1287 17.007L12.1102 16.7076L11.8287 16.7249V17.007H12.1287ZM12.1287 18.222V18.522H12.4287V18.222H12.1287ZM11.3187 18.222H11.0187V18.522H11.3187V18.222ZM11.3187 17.007H11.6187V16.7322L11.3449 16.7081L11.3187 17.007ZM9.09866 16.137L8.89862 16.3606L8.90083 16.3625L9.09866 16.137ZM8.22866 14.202V13.902H7.92479L7.92869 14.2058L8.22866 14.202ZM9.68366 14.202L9.98231 14.1735L9.95645 13.902H9.68366V14.202ZM10.1487 15.297L9.9224 15.4941L9.92603 15.4981L10.1487 15.297ZM11.3187 15.882L11.2713 16.1782L11.6187 16.2338V15.882H11.3187ZM11.3187 12.132H11.6187V11.8986L11.3924 11.8412L11.3187 12.132ZM9.69866 11.607L9.57807 11.8817H9.57807L9.69866 11.607ZM8.64866 10.767L8.88715 10.585V10.585L8.64866 10.767ZM9.05366 7.22699L8.84937 7.00728L8.84745 7.0091L9.05366 7.22699ZM11.3187 6.34199L11.3378 6.64138L11.6187 6.62345V6.34199H11.3187ZM11.3187 5.09699V4.79699H11.0187V5.09699H11.3187ZM12.1287 5.09699H12.4287V4.79699H12.1287V5.09699ZM12.1287 6.34199H11.8287V6.6183L12.104 6.64098L12.1287 6.34199ZM14.1837 7.16699L13.9802 7.38744L13.9825 7.38955L14.1837 7.16699ZM15.0837 9.01199V9.31199H15.4169L15.382 8.98059L15.0837 9.01199ZM13.6287 9.01199L13.3317 9.05442L13.3685 9.31199H13.6287V9.01199ZM13.1637 8.06699L12.9403 8.26729L12.9438 8.27113L13.1637 8.06699ZM12.1287 7.49699L12.1901 7.20335L11.8287 7.1277V7.49699H12.1287ZM12.1287 11.157H11.8287V11.3895L12.0538 11.4475L12.1287 11.157ZM13.7337 11.682L13.613 11.9568L13.6211 11.9601L13.7337 11.682ZM14.7837 12.507L14.5421 12.685L14.5452 12.689L14.7837 12.507ZM10.0437 10.287L10.2439 10.0636L10.0437 10.287ZM11.3187 10.932L11.2315 11.2191L11.6187 11.3366V10.932H11.3187ZM11.3187 7.46699H11.6187V7.13676L11.29 7.16837L11.3187 7.46699ZM10.0737 7.97699L10.2748 8.19966L10.2786 8.19607L10.0737 7.97699ZM12.1287 15.897H11.8287V16.2322L12.1618 16.1952L12.1287 15.897ZM13.3887 15.312L13.17 15.1066L13.1667 15.1102L13.3887 15.312ZM13.4037 13.002L13.2029 13.225L13.2072 13.2287L13.4037 13.002ZM12.1287 12.357L12.2125 12.0689L11.8287 11.9573V12.357H12.1287ZM14.9187 14.052C14.9187 14.4795 14.8124 14.8904 14.5953 15.2883L15.122 15.5756C15.385 15.0936 15.5187 14.5844 15.5187 14.052H14.9187ZM14.5967 15.2858C14.3846 15.6659 14.068 15.9902 13.6361 16.2567L13.9512 16.7673C14.4594 16.4538 14.8528 16.0581 15.1206 15.5782L14.5967 15.2858ZM13.6337 16.2582C13.224 16.5165 12.7199 16.67 12.1102 16.7076L12.1471 17.3064C12.8375 17.2639 13.4434 17.0875 13.9537 16.7658L13.6337 16.2582ZM11.8287 17.007V18.222H12.4287V17.007H11.8287ZM12.1287 17.922H11.3187V18.522H12.1287V17.922ZM11.6187 18.222V17.007H11.0187V18.222H11.6187ZM11.3449 16.7081C10.4851 16.6326 9.80939 16.3614 9.2965 15.9115L8.90083 16.3625C9.52794 16.9126 10.3322 17.2214 11.2924 17.3058L11.3449 16.7081ZM9.2987 15.9134C8.79271 15.4607 8.53759 14.896 8.52864 14.1981L7.92869 14.2058C7.93974 15.0679 8.26461 15.7933 8.89863 16.3606L9.2987 15.9134ZM8.22866 14.502H9.68366V13.902H8.22866V14.502ZM9.38502 14.2304C9.43079 14.7111 9.61014 15.1355 9.92244 15.494L10.3749 15.1C10.1472 14.8385 10.0165 14.5329 9.98231 14.1735L9.38502 14.2304ZM9.92603 15.4981C10.261 15.869 10.7185 16.0898 11.2713 16.1782L11.3661 15.5858C10.9188 15.5142 10.5963 15.345 10.3713 15.0959L9.92603 15.4981ZM11.6187 15.882V12.132H11.0187V15.882H11.6187ZM11.3924 11.8412C10.7308 11.6733 10.2083 11.5031 9.81926 11.3323L9.57807 11.8817C10.009 12.0709 10.5665 12.2506 11.2449 12.4228L11.3924 11.8412ZM9.81926 11.3323C9.45891 11.1741 9.14848 10.9274 8.88715 10.585L8.41018 10.949C8.72885 11.3666 9.11842 11.6799 9.57807 11.8817L9.81926 11.3323ZM8.88715 10.585C8.64867 10.2725 8.51366 9.83337 8.51366 9.23699H7.91366C7.91366 9.92062 8.06866 10.5015 8.41018 10.949L8.88715 10.585ZM8.51366 9.23699C8.51366 8.50475 8.76306 7.91508 9.25988 7.44488L8.84745 7.0091C8.22427 7.5989 7.91366 8.34924 7.91366 9.23699H8.51366ZM9.25795 7.44669C9.76722 6.97316 10.4518 6.69793 11.3378 6.64138L11.2996 6.0426C10.3055 6.10605 9.48011 6.42083 8.84938 7.00729L9.25795 7.44669ZM11.6187 6.34199V5.09699H11.0187V6.34199H11.6187ZM11.3187 5.39699H12.1287V4.79699H11.3187V5.39699ZM11.8287 5.09699V6.34199H12.4287V5.09699H11.8287ZM12.104 6.64098C12.9015 6.70665 13.5189 6.9616 13.9802 7.38743L14.3871 6.94655C13.8085 6.41239 13.0559 6.11733 12.1533 6.043L12.104 6.64098ZM13.9825 7.38955C14.4425 7.80534 14.7123 8.34972 14.7853 9.0434L15.382 8.98059C15.295 8.15426 14.9648 7.46864 14.3848 6.94443L13.9825 7.38955ZM15.0837 8.71199H13.6287V9.31199H15.0837V8.71199ZM13.9256 8.96957C13.8663 8.55412 13.6816 8.18384 13.3835 7.86286L12.9438 8.27113C13.1658 8.51014 13.291 8.76986 13.3317 9.05442L13.9256 8.96957ZM13.387 7.86673C13.079 7.52317 12.6743 7.30469 12.1901 7.20335L12.0672 7.79063C12.443 7.86929 12.7283 8.03082 12.9403 8.26726L13.387 7.86673ZM11.8287 7.49699V11.157H12.4287V7.49699H11.8287ZM12.0538 11.4475C12.7054 11.6153 13.2234 11.7856 13.6131 11.9567L13.8543 11.4073C13.4239 11.2184 12.872 11.0387 12.2035 10.8665L12.0538 11.4475ZM13.6211 11.9601C13.9875 12.1084 14.2936 12.3477 14.5421 12.685L15.0252 12.329C14.7137 11.9063 14.3198 11.5956 13.8462 11.4039L13.6211 11.9601ZM14.5452 12.689C14.7831 13.0008 14.9187 13.4444 14.9187 14.052H15.5187C15.5187 13.3596 15.3642 12.7732 15.0221 12.325L14.5452 12.689ZM9.30866 9.16199C9.30866 9.71364 9.47426 10.1794 9.8434 10.5104L10.2439 10.0636C10.0331 9.87458 9.90866 9.59035 9.90866 9.16199H9.30866ZM9.8434 10.5104C10.1782 10.8105 10.6488 11.0422 11.2315 11.2191L11.4058 10.6449C10.8685 10.4818 10.4891 10.2834 10.2439 10.0636L9.8434 10.5104ZM11.6187 10.932V7.46699H11.0187V10.932H11.6187ZM11.29 7.16837C10.7196 7.22321 10.2374 7.41305 9.86872 7.75791L10.2786 8.19607C10.53 7.96094 10.8777 7.81077 11.3474 7.76561L11.29 7.16837ZM9.87258 7.75436C9.48598 8.10355 9.30866 8.58741 9.30866 9.16199H9.90866C9.90866 8.71657 10.0414 8.41043 10.2747 8.19962L9.87258 7.75436ZM12.1618 16.1952C12.7578 16.1289 13.2514 15.909 13.6106 15.5138L13.1667 15.1102C12.926 15.375 12.5795 15.5451 12.0955 15.5988L12.1618 16.1952ZM13.6073 15.5174C13.9705 15.1308 14.1537 14.662 14.1537 14.127H13.5537C13.5537 14.512 13.4268 14.8332 13.17 15.1066L13.6073 15.5174ZM14.1537 14.127C14.1537 13.5721 13.981 13.1053 13.6001 12.7753L13.2072 13.2287C13.4264 13.4187 13.5537 13.7019 13.5537 14.127H14.1537ZM13.6044 12.779C13.2598 12.4689 12.7889 12.2366 12.2125 12.0689L12.0449 12.6451C12.5685 12.7974 12.9476 12.9951 13.203 13.225L13.6044 12.779ZM11.8287 12.357V15.897H12.4287V12.357H11.8287Z" fill="white" mask="url(#path-2-outside-1_52_38693)"/>
</svg>
