<svg width="30" height="30" viewBox="0 0 30 30" fill="none" xmlns="http://www.w3.org/2000/svg">
<path d="M14.2392 16.0649C14.3481 16.1177 14.4675 16.1454 14.5885 16.1461C14.7096 16.1454 14.8289 16.1177 14.9379 16.0649C17.0766 15.0434 18.7518 13.2535 19.6299 11.052C20.3448 9.42709 20.812 7.47312 21.1492 4.74325C21.1631 4.62891 21.1525 4.51291 21.1182 4.40295C21.0839 4.293 21.0266 4.19159 20.9501 4.10547C20.874 4.02006 20.7808 3.95166 20.6765 3.90476C20.5722 3.85786 20.4592 3.83351 20.3448 3.8333H20.2798C18.4099 3.89151 16.5769 3.30488 15.0882 2.17181C14.9454 2.06047 14.7696 2 14.5885 2C14.4075 2 14.2316 2.06047 14.0889 2.17181C12.6035 3.30519 10.7728 3.89196 8.90536 3.8333H8.85255C8.7375 3.83293 8.62369 3.85701 8.51864 3.90393C8.4136 3.95085 8.31971 4.01955 8.24321 4.10547C8.16617 4.19207 8.10854 4.29414 8.07421 4.40485C8.03988 4.51555 8.02963 4.63232 8.04415 4.74732C8.38133 7.47312 8.85662 9.41897 9.56346 11.048C10.4363 13.2483 12.1056 15.0394 14.2392 16.0649ZM15.4051 4.30046C16.6491 4.9573 18.0186 5.34224 19.4227 5.42978C19.2915 6.38718 19.1071 7.33653 18.8702 8.2734H15.4051V4.30046ZM13.7801 9.88613V13.9078C12.5599 13.0149 11.6107 11.8015 11.0381 10.402C10.965 10.2314 10.8959 10.0608 10.8268 9.88613H13.7801Z" fill="white"/>
<path d="M19.4674 25.0343C19.6799 25.0345 19.8841 24.9514 20.0361 24.8028L26.5602 18.3843C26.5827 18.3634 26.6031 18.3403 26.6211 18.3153C26.74 18.18 26.8448 18.033 26.9339 17.8765C27.0925 17.5753 27.18 17.2418 27.1898 16.9016C27.2029 16.3053 26.9796 15.728 26.5687 15.2957C26.1577 14.8634 25.5924 14.6112 24.9962 14.5942C24.4886 14.5841 23.9928 14.7474 23.5906 15.0573L23.5297 15.0817L20.2027 18.0309C20.0153 17.6316 19.7211 17.2919 19.3525 17.0495C18.984 16.8072 18.5555 16.6716 18.1146 16.6578L10.1931 16.3857C10.0825 16.3829 9.9725 16.4027 9.86981 16.4439C9.76713 16.4851 9.67394 16.5468 9.59597 16.6253L6.65892 19.5624L6.06176 18.8515C5.99152 18.7707 5.90599 18.7045 5.81009 18.6569C5.7142 18.6092 5.60983 18.581 5.503 18.5739C5.39616 18.5667 5.28896 18.5807 5.18755 18.6151C5.08615 18.6495 4.99255 18.7036 4.91213 18.7743L2.27976 21.0533C2.11716 21.1945 2.01727 21.3944 2.00204 21.6092C1.9868 21.824 2.05747 22.0361 2.19851 22.1988L7.01234 27.7195C7.0821 27.8006 7.16717 27.867 7.26267 27.9151C7.35817 27.9632 7.46223 27.992 7.56888 27.9998H7.62575C7.82271 28.0006 8.01327 27.9299 8.16198 27.8007L10.774 25.5177C10.8808 25.4237 10.961 25.3033 11.0066 25.1686C11.0522 25.0338 11.0617 24.8895 11.034 24.75L19.4268 25.0343H19.4674ZM10.3678 23.1007C10.1906 23.0954 10.0166 23.1481 9.87221 23.251L7.72731 20.7892L10.4937 18.0228L18.0618 18.2828C18.1648 18.2864 18.266 18.3104 18.3598 18.3532C18.4535 18.396 18.5379 18.4569 18.608 18.5324C18.6782 18.6078 18.7328 18.6964 18.7687 18.793C18.8047 18.8895 18.8212 18.9923 18.8174 19.0952C18.8128 19.1962 18.7894 19.2954 18.7483 19.3877V19.4243C18.6806 19.5557 18.5772 19.6653 18.4501 19.7407C18.3229 19.8162 18.1771 19.8543 18.0293 19.8508L14.1701 19.7208L14.1173 21.3457L18.0537 21.4798C18.4629 21.4759 18.8642 21.3675 19.2197 21.1649C19.5752 20.9622 19.873 20.6721 20.0848 20.322L24.5859 16.3369C24.6879 16.2538 24.8159 16.2092 24.9474 16.211C25.1143 16.2166 25.2721 16.2882 25.3862 16.41C25.4708 16.5029 25.527 16.6182 25.5479 16.7421C25.5688 16.866 25.5535 16.9933 25.504 17.1088L25.3821 17.2672L19.1343 23.3972L10.3678 23.1007Z" fill="white"/>
</svg>
