<svg width="33" height="30" viewBox="0 0 33 30" fill="none" xmlns="http://www.w3.org/2000/svg">
<path d="M32.1186 8.2563L17.1482 0.177778C16.7082 -0.0592593 16.1793 -0.0592593 15.7408 0.177778L0.777859 8.2563C0.0578592 8.64741 -0.210289 9.54519 0.177859 10.2652C0.444526 10.7615 0.955637 11.043 1.48156 11.043C1.7186 11.043 1.96156 10.9867 2.18527 10.8652L3.27267 10.2785L5.62823 26.9452C5.94823 28.7437 7.56897 30 9.56897 30H23.3201C25.3201 30 26.9408 28.7437 27.2638 26.9067L29.6164 10.277L30.7082 10.8667C31.4268 11.2563 32.326 10.9881 32.7142 10.2681C33.1038 9.54815 32.8327 8.64889 32.1156 8.26074L32.1186 8.2563ZM16.4445 20.2341C13.7853 20.2341 11.6297 18.0785 11.6297 15.4193C11.6297 12.76 13.7853 10.6044 16.4445 10.6044C19.1038 10.6044 21.2593 12.76 21.2593 15.4193C21.2593 18.0785 19.1038 20.2341 16.4445 20.2341Z" fill="white"/>
</svg>
