<svg width="26" height="25" viewBox="0 0 26 25" fill="none" xmlns="http://www.w3.org/2000/svg">
<path d="M19.1931 4.21808C18.8961 4.21808 18.6058 4.30387 18.3589 4.46462C18.112 4.62537 17.9196 4.85385 17.806 5.12116C17.6923 5.38847 17.6626 5.68262 17.7205 5.96639C17.7784 6.25017 17.9214 6.51084 18.1314 6.71543C18.3414 6.92002 18.6089 7.05935 18.9002 7.1158C19.1914 7.17225 19.4933 7.14328 19.7676 7.03255C20.042 6.92183 20.2765 6.73432 20.4415 6.49375C20.6064 6.25317 20.6945 5.97033 20.6945 5.68099C20.6945 5.293 20.5363 4.9209 20.2547 4.64655C19.9732 4.3722 19.5913 4.21808 19.1931 4.21808ZM24.9485 7.16829C24.9242 6.1568 24.7297 5.15605 24.373 4.20588C24.0548 3.39291 23.5597 2.65675 22.9216 2.04808C22.302 1.42321 21.5447 0.943796 20.707 0.646121C19.7344 0.287903 18.7062 0.0941265 17.6666 0.0731458C16.3404 -6.81224e-08 15.915 0 12.5118 0C9.10858 0 8.68318 -6.81224e-08 7.35693 0.0731458C6.31739 0.0941265 5.28916 0.287903 4.31657 0.646121C3.48037 0.94681 2.72373 1.42581 2.10198 2.04808C1.46066 2.65175 0.968633 3.38963 0.663125 4.20588C0.295479 5.15354 0.0966035 6.15541 0.0750706 7.16829C-6.99151e-08 8.46053 0 8.87503 0 12.191C0 15.5069 -6.99151e-08 15.9214 0.0750706 17.2137C0.0966035 18.2265 0.295479 19.2284 0.663125 20.1761C0.968633 20.9923 1.46066 21.7302 2.10198 22.3339C2.72373 22.9561 3.48037 23.4351 4.31657 23.7358C5.28916 24.094 6.31739 24.2878 7.35693 24.3088C8.68318 24.3819 9.10858 24.3819 12.5118 24.3819C15.915 24.3819 16.3404 24.3819 17.6666 24.3088C18.7062 24.2878 19.7344 24.094 20.707 23.7358C21.5447 23.4381 22.302 22.9587 22.9216 22.3339C23.5625 21.7275 24.0581 20.9907 24.373 20.1761C24.7297 19.2259 24.9242 18.2251 24.9485 17.2137C24.9485 15.9214 25.0236 15.5069 25.0236 12.191C25.0236 8.87503 25.0236 8.46053 24.9485 7.16829ZM22.6964 17.0674C22.6873 17.8412 22.5434 18.6079 22.271 19.3349C22.0712 19.8654 21.7503 20.3448 21.3326 20.7368C20.9268 21.1398 20.4358 21.4518 19.8937 21.6512C19.1477 21.9166 18.3608 22.0568 17.5666 22.0657C16.3154 22.1266 15.8524 22.1388 12.5618 22.1388C9.27123 22.1388 8.8083 22.1388 7.55712 22.0657C6.73246 22.0807 5.91131 21.957 5.12983 21.6999C4.61157 21.4903 4.1431 21.1791 3.75354 20.7856C3.33826 20.394 3.0214 19.9142 2.82766 19.3836C2.5222 18.6463 2.35277 17.8621 2.32719 17.0674C2.32719 15.8483 2.25212 15.3972 2.25212 12.191C2.25212 8.98475 2.25212 8.53368 2.32719 7.31458C2.3328 6.52346 2.48102 5.73944 2.76511 4.9983C2.98537 4.48373 3.32346 4.02504 3.75354 3.65729C4.13366 3.23813 4.60345 2.90523 5.12983 2.68201C5.89249 2.41387 6.69631 2.27371 7.50707 2.26752C8.75825 2.26752 9.22119 2.19437 12.5118 2.19437C15.8024 2.19437 16.2653 2.19437 17.5165 2.26752C18.3107 2.2764 19.0976 2.41655 19.8437 2.68201C20.4123 2.88762 20.9226 3.22189 21.3326 3.65729C21.7426 4.03177 22.063 4.48961 22.271 4.9983C22.5491 5.74065 22.693 6.52434 22.6964 7.31458C22.7589 8.53368 22.7715 8.98475 22.7715 12.191C22.7715 15.3972 22.7589 15.8483 22.6964 17.0674ZM12.5118 5.937C11.2429 5.93941 10.0031 6.30825 8.94925 6.99691C7.89537 7.68557 7.07464 8.66314 6.59075 9.80612C6.10686 10.9491 5.98154 12.2062 6.23061 13.4185C6.47968 14.6309 7.09198 15.7441 7.99012 16.6175C8.88827 17.4909 10.032 18.0853 11.2767 18.3256C12.5214 18.566 13.8113 18.4414 14.9835 17.9677C16.1556 17.494 17.1573 16.6924 17.862 15.6642C18.5667 14.636 18.9428 13.4274 18.9428 12.191C18.9445 11.3682 18.7792 10.5532 18.4564 9.79295C18.1337 9.03266 17.6598 8.34205 17.0622 7.76083C16.4645 7.17962 15.7548 6.71927 14.9739 6.40627C14.1929 6.09327 13.3562 5.93379 12.5118 5.937ZM12.5118 16.2506C11.6877 16.2506 10.8822 16.0125 10.197 15.5664C9.51188 15.1203 8.97786 14.4863 8.66251 13.7445C8.34717 13.0027 8.26466 12.1865 8.42542 11.399C8.58618 10.6115 8.983 9.88815 9.56568 9.32041C10.1484 8.75266 10.8908 8.36602 11.699 8.20938C12.5072 8.05274 13.3449 8.13313 14.1062 8.4404C14.8675 8.74766 15.5182 9.26799 15.976 9.93558C16.4339 10.6032 16.6782 11.3881 16.6782 12.191C16.6782 12.7241 16.5704 13.252 16.3611 13.7445C16.1517 14.237 15.8448 14.6846 15.4579 15.0615C15.071 15.4385 14.6117 15.7375 14.1062 15.9415C13.6007 16.1456 13.0589 16.2506 12.5118 16.2506Z" fill="white"/>
</svg>
