<svg width="109" height="22" viewBox="0 0 109 22" fill="none" xmlns="http://www.w3.org/2000/svg">
<path d="M0.961492 20.5417C0.319742 19.8432 0 19.0325 0 18.1085V3.96161C0 2.84931 0.310671 1.95699 0.933146 1.28802C1.55562 0.617928 2.35724 0.283447 3.33801 0.283447H9.56049C11.1161 0.283447 12.5028 0.615661 13.7183 1.28122C14.9337 1.94678 15.8771 2.85158 16.5472 3.99789C17.2161 5.14419 17.5518 6.41976 17.5518 7.82458C17.5041 9.83373 16.859 11.4982 15.614 12.8191C14.3691 14.14 12.691 14.9269 10.5787 15.182C10.1444 15.2387 9.72036 15.2671 9.30538 15.2671H6.68849V18.1674C6.68849 19.1675 6.35401 19.9883 5.68391 20.629C5.05236 21.2605 4.27909 21.5769 3.36409 21.5769C2.423 21.5746 1.62138 21.231 0.961492 20.5417ZM6.68962 9.40854H9.3632C9.80653 9.40854 10.183 9.25321 10.4948 8.9414C10.8247 8.61146 10.9903 8.23843 10.9903 7.82344C10.9903 7.39939 10.8349 7.03089 10.5231 6.72022C10.1841 6.40955 9.79746 6.25308 9.3632 6.25308H6.68962V9.40854Z" fill="white"/>
<path d="M19.4747 20.6267C18.8148 19.9668 18.4849 19.155 18.4849 18.1935V3.4378C18.4849 2.49445 18.8125 1.69963 19.4679 1.05448C20.1233 0.408195 20.9181 0.0850525 21.8512 0.0850525C22.4453 0.0850525 22.9987 0.233585 23.5134 0.530649C24.027 0.827714 24.433 1.23589 24.73 1.75406C25.0271 2.27335 25.1756 2.84367 25.1756 3.46615V18.2502C25.1756 18.6935 25.0928 19.1255 24.9284 19.545C24.7629 19.9646 24.5203 20.3353 24.2005 20.6562C23.5406 21.2878 22.7583 21.6041 21.8523 21.6041C20.8897 21.603 20.0972 21.2775 19.4747 20.6267Z" fill="white"/>
<path d="M39.573 15.5766C40.5719 15.3884 41.2794 15.0063 41.6944 14.4303H39.9551C39.1252 14.4303 38.4256 14.1378 37.8553 13.5527C37.2849 12.9676 36.9992 12.2658 36.9992 11.4449C37.0185 10.8984 37.1545 10.4052 37.4097 9.96638C37.6648 9.52759 38.0151 9.1761 38.463 8.91191C38.9109 8.64773 39.3984 8.51621 39.9268 8.51621H45.5415C47.6062 8.51621 48.6392 9.65344 48.6392 11.9256C48.6392 12.5855 48.5734 13.2647 48.4407 13.9631C48.3081 14.8407 47.9838 15.7455 47.4645 16.6798C46.8896 17.7082 46.1561 18.5926 45.2649 19.333C44.3737 20.0734 43.351 20.6369 42.1956 21.0235C41.0402 21.4102 39.7703 21.6041 38.3836 21.6041C37.5911 21.6041 36.7146 21.5281 35.7531 21.3773C34.4333 21.1505 33.2383 20.7571 32.1679 20.1958C31.0976 19.6346 30.1622 18.9112 29.3606 18.0245C28.559 17.1379 27.9183 16.1288 27.4376 14.9972C26.8809 13.6581 26.6031 12.2998 26.6031 10.9222C26.6031 9.11147 27.0623 7.39711 27.9818 5.77913C28.9014 4.16115 30.1996 2.82436 31.8788 1.76876C33.7077 0.628123 35.7917 0.0566711 38.1296 0.0566711C38.4312 0.0566711 38.8655 0.0759463 39.4313 0.113363C40.4404 0.1984 41.4257 0.391152 42.3872 0.693886C43.3113 0.995486 44.1786 1.39233 44.9893 1.88214C46.6391 2.96722 47.4645 4.12714 47.4645 5.36188C47.4645 6.09774 47.1255 6.76217 46.4463 7.35629C45.9656 7.78035 45.3851 7.99351 44.707 7.99351C44.207 7.99351 43.6741 7.87559 43.1083 7.63975H43.08L41.8634 7.00254C41.5992 6.85174 41.3962 6.74743 41.2556 6.69187C40.0764 6.14536 38.9789 5.87097 37.9607 5.87097C37.1409 5.87097 36.4051 6.03424 35.7543 6.35965C35.1034 6.68506 34.5615 7.16354 34.1283 7.79509C33.6941 8.42663 33.4072 9.15796 33.2655 9.98792C33.2088 10.2521 33.1805 10.5118 33.1805 10.7657C33.1805 11.0957 33.2088 11.4166 33.2655 11.7272C33.4356 12.5663 33.7372 13.2862 34.1703 13.8849C34.6034 14.4836 35.1533 14.9462 35.8178 15.2716C36.4822 15.597 37.2339 15.7603 38.0741 15.7603C38.582 15.7603 39.0821 15.699 39.573 15.5766Z" fill="white"/>
<path d="M50.3207 19.1697C50.1416 18.7547 50.052 18.3307 50.052 17.8964V3.67815C50.052 3.0466 50.1983 2.47061 50.4908 1.95245C50.7833 1.43429 51.1836 1.02611 51.6927 0.729044C52.2018 0.43198 52.7766 0.283447 53.4184 0.283447H61.3813C61.862 0.283447 62.3212 0.412704 62.76 0.672352C63.1988 0.932 63.5469 1.28349 63.8065 1.72682C64.0662 2.17015 64.1954 2.66563 64.1954 3.21214C64.1954 3.74958 64.0662 4.24506 63.8065 4.69746C63.5469 5.14986 63.1988 5.50929 62.76 5.77234C62.3212 6.03652 61.8427 6.16805 61.3246 6.16805H56.7428V7.93683H60.5184C60.9232 7.93683 61.3246 8.0196 61.7203 8.184C62.116 8.34954 62.4561 8.57291 62.7385 8.85637C63.0219 9.10127 63.2385 9.39607 63.3893 9.74076C63.5401 10.0854 63.6161 10.4415 63.6161 10.8088C63.6161 11.5821 63.3145 12.2567 62.7113 12.8316C62.0604 13.3883 61.3393 13.6661 60.5479 13.6661H56.7439V15.4916H61.1001C61.9675 15.4916 62.7169 15.7932 63.3485 16.3975C63.6501 16.6526 63.8768 16.961 64.0276 17.3238C64.1784 17.6867 64.2544 18.062 64.2544 18.4486C64.2544 19.2502 63.9619 19.9294 63.378 20.4861C62.7271 21.061 61.9969 21.349 61.1863 21.349H53.3934C52.7709 21.349 52.1791 21.1528 51.619 20.7616C51.0543 20.3705 50.6235 19.8398 50.3207 19.1697Z" fill="white"/>
<path d="M67.1093 16.8352C66.6853 16.232 66.3293 15.5925 66.0413 14.9179C65.7533 14.2432 65.5367 13.5641 65.3905 12.8804C65.2442 12.1967 65.1716 11.5061 65.1716 10.8077C65.1716 10.1285 65.2442 9.44484 65.3905 8.7566C65.5367 8.06836 65.7556 7.38239 66.0481 6.69869C66.3406 6.01499 66.6944 5.37551 67.1093 4.78138C67.7885 3.79154 68.6083 2.93776 69.5698 2.22118C70.5313 1.5046 71.5857 0.954688 72.7309 0.572586C73.8761 0.190484 75.053 0 76.2594 0C77.1642 0 78.0577 0.108848 78.9398 0.32541C79.8208 0.541973 80.6655 0.86058 81.4716 1.2801C82.2778 1.69962 83.0136 2.20191 83.6781 2.78696C84.3425 3.37202 84.9253 4.03645 85.4242 4.78138C86.7156 6.6488 87.3619 8.65796 87.3619 10.8077C87.3619 11.8735 87.1964 12.9178 86.8664 13.9416C86.5365 14.9655 86.0557 15.9292 85.4242 16.8352C84.9242 17.562 84.33 18.2286 83.6418 18.8375C82.9535 19.4464 82.2302 19.9487 81.4705 20.3444C80.712 20.7401 79.8797 21.0542 78.9738 21.2855C78.069 21.5168 77.1631 21.6324 76.2583 21.6324C75.0507 21.6324 73.8749 21.4442 72.7298 21.0666C71.5846 20.6891 70.5279 20.138 69.5618 19.4112C68.5958 18.6845 67.7783 17.8261 67.1093 16.8352ZM71.8046 10.8088C71.8046 11.7431 72.0052 12.5912 72.4055 13.3554C72.8057 14.1196 73.3432 14.7115 74.0178 15.131C74.6913 15.5505 75.4294 15.7603 76.231 15.7603C76.5145 15.7603 76.8059 15.7319 77.1075 15.6753C77.6449 15.5619 78.1302 15.3635 78.5645 15.0811C78.9976 14.7977 79.382 14.4394 79.7176 14.0063C80.0521 13.572 80.3094 13.089 80.4886 12.5561C80.6677 12.0232 80.7573 11.4506 80.7573 10.8372C80.7573 10.5447 80.729 10.234 80.6723 9.90291C80.5305 9.08201 80.255 8.3745 79.8446 7.78037C79.4341 7.18624 78.9182 6.7191 78.2958 6.38008C77.6733 6.04107 76.9941 5.87099 76.2594 5.87099C75.4385 5.87099 74.689 6.08075 74.011 6.50027C73.3318 6.91979 72.7944 7.51165 72.3987 8.27586C72.003 9.04006 71.8046 9.88476 71.8046 10.8088Z" fill="white"/>
<path d="M89.794 20.5417C89.1148 19.731 88.7758 18.8398 88.7758 17.8681V3.46617C88.7758 2.74958 88.9663 2.1033 89.3484 1.52844C89.7305 0.95359 90.2373 0.538607 90.8689 0.283494C91.2736 0.113419 91.6796 0.0283813 92.0855 0.0283813C93.0946 0.0283813 94.0515 0.556748 94.9563 1.61235L102.31 10.3417V3.46617C102.31 2.53189 102.645 1.7314 103.315 1.0613C103.975 0.410484 104.757 0.0850731 105.663 0.0850731C106.116 0.0850731 106.548 0.167843 106.957 0.332249C107.367 0.497789 107.718 0.740429 108.01 1.0613C108.312 1.35383 108.552 1.71439 108.731 2.14412C108.91 2.57384 109 3.01377 109 3.4673V18.223C109 18.3647 108.981 18.5858 108.943 18.8874C108.849 19.4067 108.639 19.8705 108.314 20.2809C107.989 20.6914 107.595 21.01 107.133 21.2356C106.67 21.4624 106.171 21.5746 105.634 21.5746C104.992 21.5746 104.413 21.4136 103.894 21.0939C103.517 20.8388 103.239 20.5939 103.06 20.358L95.4654 11.0345V18.1935C95.4654 19.1652 95.14 19.9759 94.4892 20.6267C93.8577 21.2583 93.0935 21.5746 92.1977 21.5746C91.2272 21.5746 90.4267 21.2311 89.794 20.5417Z" fill="white"/>
</svg>
