<svg width="16" height="16" viewBox="0 0 16 16" fill="none" xmlns="http://www.w3.org/2000/svg">
<path d="M15.76 11.3591C15.744 11.3466 14.0478 10.0777 14.0774 6.64761C14.0934 4.66927 13.4278 2.91126 12.1996 1.69784C11.0995 0.609443 9.60972 0.00781337 8.00553 0H7.99513C6.39175 0.00781337 4.90198 0.609443 3.80105 1.69863C2.57371 2.91204 1.90643 4.66927 1.92404 6.64761C1.95364 10.0308 0.30785 11.3098 0.242242 11.3591C0.0342185 11.5099 -0.0505913 11.7732 0.030218 12.0138C0.111827 12.2545 0.342254 12.4162 0.599883 12.4162H4.53633C4.61794 14.2211 6.13412 15.6666 8.00073 15.6666C9.86735 15.6666 11.3819 14.2211 11.4627 12.4162H15.4008C15.6584 12.4162 15.8888 12.2553 15.9688 12.0146C16.0513 11.7747 15.9664 11.5107 15.7584 11.3599L15.76 11.3591ZM8.00153 14.4922C6.79739 14.4922 5.81728 13.5726 5.73887 12.4154H10.2642C10.1842 13.5718 9.20567 14.4938 8.00153 14.4938V14.4922ZM1.90483 11.2434C2.4969 10.359 3.14338 8.87755 3.12417 6.63667C3.10977 4.94899 3.63943 3.52539 4.65475 2.52137C5.52925 1.65643 6.71899 1.17747 8.00153 1.17201C9.28408 1.17826 10.4714 1.65643 11.3459 2.52216C12.362 3.52617 12.8925 4.94899 12.8781 6.63746C12.8589 8.87833 13.5062 10.3605 14.0982 11.2442H1.90483V11.2434Z" fill="#73767D"/>
</svg>
