<svg width="21" height="34" viewBox="0 0 21 34" fill="none" xmlns="http://www.w3.org/2000/svg">
<path d="M16.7524 0H3.6638C2.6921 0 1.7602 0.386006 1.0731 1.0731C0.386006 1.7602 0 2.6921 0 3.6638V29.3862C0 30.3579 0.386006 31.2898 1.0731 31.9769C1.7602 32.664 2.6921 33.05 3.6638 33.05H16.7524C17.7241 33.05 18.656 32.664 19.3431 31.9769C20.0302 31.2898 20.4162 30.3579 20.4162 29.3862V3.6638C20.4162 2.6921 20.0302 1.7602 19.3431 1.0731C18.656 0.386006 17.7241 0 16.7524 0ZM17.6873 29.3862C17.6873 29.6342 17.5888 29.8719 17.4135 30.0473C17.2382 30.2226 17.0004 30.3211 16.7524 30.3211H3.6638C3.41585 30.3211 3.17805 30.2226 3.00272 30.0473C2.8274 29.8719 2.7289 29.6342 2.7289 29.3862V3.6638C2.7289 3.41585 2.8274 3.17805 3.00272 3.00273C3.17805 2.8274 3.41585 2.7289 3.6638 2.7289H16.7524C17.0004 2.7289 17.2382 2.8274 17.4135 3.00273C17.5888 3.17805 17.6873 3.41585 17.6873 3.6638V29.3862Z" fill="#18191E"/>
<path d="M11.4715 26.531H8.94471C8.58284 26.531 8.23578 26.6748 7.9799 26.9306C7.72401 27.1865 7.58026 27.5336 7.58026 27.8955C7.58026 28.2573 7.72401 28.6044 7.9799 28.8603C8.23578 29.1162 8.58284 29.2599 8.94471 29.2599H11.4715C11.8333 29.2599 12.1804 29.1162 12.4363 28.8603C12.6922 28.6044 12.8359 28.2573 12.8359 27.8955C12.8359 27.5336 12.6922 27.1865 12.4363 26.9306C12.1804 26.6748 11.8333 26.531 11.4715 26.531Z" fill="#18191E"/>
</svg>
