<?xml version="1.0" encoding="UTF-8"?>
<svg id="katman_1" data-name="katman 1" xmlns="http://www.w3.org/2000/svg" viewBox="0 0 1200.26 1311">
  <defs>
    <style>
      .cls-1 {
        stroke-width: 10.76px;
      }

      .cls-1, .cls-2 {
        fill: none;
      }

      .cls-1, .cls-3 {
        stroke: #18191e;
        stroke-miterlimit: 10;
      }

      .cls-4 {
        fill: #18191e;
      }

      .cls-4, .cls-2, .cls-5, .cls-6 {
        stroke-width: 0px;
      }

      .cls-5 {
        fill: #9595a0;
      }

      .cls-3 {
        fill: #ff9a8e;
        stroke-width: 16.14px;
      }

      .cls-6 {
        fill: #fff;
      }
    </style>
  </defs>
  <path class="cls-2" d="M326.81,853.98c5.66-36.34-19.08-46.16-25.08-87.58-5.39-37.2,11.71-48.87-1.24-80.94-1.12-2.77-6.39-16.37-20.37-31.07-8.71-9.16-26.34-27.69-55.95-33.39-30.2-5.82-53.91,5.35-65.16,10.66-6.75,3.18-18.67,9.31-30.22,21.62-23.66,25.24-11.92,42.3-30.38,75.03-20.56,36.46-47.17,36.68-55.01,72.61-.68,3.09-2.92,14.28-1.37,24.83,5.44,36.96,57.85,68.04,127.94,79.55,0,.03-.01.05-.02.08,70,14.92,130.64,4.92,149.16-27.76,5.26-9.27,7.2-20.52,7.69-23.65Z"/>
  <path class="cls-4" d="M153.5,818.21c-1.66,2.86-2.87,6.01-3.51,9.41-3.22,17.22,9.36,34.01,28.08,37.51,18.73,3.5,36.51-7.62,39.73-24.84.73-3.92.64-7.82-.16-11.55l-64.15-10.53Z"/>
  <ellipse class="cls-2" cx="181.13" cy="848.72" rx="30.6" ry="96.25" transform="translate(-686.42 870.9) rotate(-79.42)"/>
  <path class="cls-5" d="M211.73,816.07c-15.23-1.64-28.95,6.68-31.34,19.5-2.13,11.38,5.36,22.69,17.43,27.85,10.16-3.88,17.96-12.3,19.98-23.13,1.63-8.75-.81-17.38-6.07-24.22Z"/>
  <path class="cls-4" d="M173.78,888.1c-50.05-9.35-101.61-31.74-96.55-58.79,5.05-27.05,61.22-29.31,111.27-19.96,50.05,9.35,101.61,31.74,96.55,58.79-5.05,27.05-61.22,29.31-111.27,19.96ZM185.02,827.94c-24.34-4.55-47.66-5.83-65.65-3.6-18.49,2.29-23.34,7.32-23.55,8.44s2.5,7.57,18.91,16.38c15.97,8.57,38.18,15.8,62.52,20.35,24.34,4.55,47.66,5.83,65.65,3.6,18.49-2.29,23.34-7.32,23.55-8.44.21-1.12-2.5-7.57-18.91-16.38-15.97-8.57-38.18-15.8-62.52-20.35Z"/>
  <path class="cls-4" d="M304.14,433.99c-19.48,34.42-33.42,76.79-36.4,113.28-1.16,17.15-.28,34.48,1.86,51.51,2.86,22.56,8.73,44.81,18.22,65.44,3.46,7.45,7.08,15.41,13.29,20.22,7.85,6.16,20.79,5.01,26.41-3.17,16.16-23.2-2.64-76.5-7.48-103.61-6.55-28.67-.52-59.51,11.59-85.51,8.06-17.38,18.41-33.42,30.1-48.23-9.45,16.33-17.74,33.23-24.03,50.67-9.04,26.13-12.8,53.59-5.45,80.24,4.95,18.12,10.55,36.41,14.08,55.11,2.66,14.61,4.92,30.28.96,45.39-4.99,22.24-26.62,35.16-48.2,26.4-13.21-5.54-20.36-18.96-25.56-31-10.19-22.15-15.54-46.42-17.82-70.42-1.79-18.62-1.45-37.46.91-56.02,6.45-39.7,23.15-78.31,47.54-110.3h0Z"/>
  <path class="cls-4" d="M296.2,371.45c-67.59,37.04-125.43,94.98-153.61,167.17-6.95,19.92-17.12,48.68-1.67,66.13,7.27,7.78,18.02,5.74,27.44,1.72,23.51-9.61,32.96-33.84,42.46-56.06,14.46-36.54,28.73-74.51,53.44-105.74,16.41-20.98,36.85-38.61,59.74-51.37-20.9,15.77-39.25,34.51-53.32,56.02-21.93,32.25-33.37,69.74-46.69,106.25-7.18,18.69-15.15,39.29-30.73,53.57-16.71,14.84-46.14,25.56-64.02,6.74-20.87-23.06-10.7-57.55-.82-82.84,30.68-73.74,94.35-132.93,167.78-161.58h0Z"/>
  <path class="cls-4" d="M387.2,504.97c-33.97,39.83-56.44,85.41-34.11,136.84,4.37,10.15,11.39,23.96,22.97,25.2,38.93,2.39-22.08-74.65,30.33-129.78-15.86,25.94-15.44,55.56-7.88,84,2.49,11.12,6.18,22.44,6.29,34.44.53,16.97-13.17,28.59-29.83,27.24-27.23-2.57-38.34-35.1-43.21-57.83-10.24-46.94,18.64-93.38,55.44-120.11h0Z"/>
  <path class="cls-4" d="M419.96,550.64c-14.1,25.51-22.68,53.53-22.01,82.54.42,18.3,2.86,70.56,30.26,62.71,4.78-1.02,7.16-3.42,9.52-7.96,5.55-11.1,1.65-22.95-.24-35.13-5.21-24.29-6.84-47.8,12.64-66.71,11.11-10.98,24.51-18.21,38.31-23.55-12.11,8.45-23.95,17.44-32.32,28.73-20.71,25.31-3.05,52.98-.37,81.3,1.23,13.87-3.54,29.15-16.64,36.37-4.9,2.28-8.4,3.13-13.48,3.75-39.56,1.96-42.24-51.59-40.34-79.95,1.8-30.23,14.47-59.85,34.65-82.11h0Z"/>
  <g>
    <path class="cls-4" d="M732.4,244.82c-3.33,0-6.36-2.06-7.55-5.24-14.35-38.32-11.94-74.74,6.12-92.77,11.84-11.82,25.85-14.86,26.44-14.98.64-.13,15.87-3.2,31.56,3.71,12,5.28,21.67,17.78,27.24,35.19,5.37,16.79,6.81,37.01,4.17,58.48-.46,3.72-3.42,6.64-7.15,7.04l-79.97,8.53c-.29.03-.57.05-.86.05ZM766.73,147.17c-3.63,0-6.02.45-6.07.46-.01,0-9.97,2.29-18.3,10.6-12.56,12.54-14.19,40.1-4.47,69.82l67.11-7.16c1.35-16.62-.09-32.49-4.17-45.24-4.14-12.95-10.67-21.95-18.37-25.34-5.78-2.54-11.57-3.14-15.73-3.14Z"/>
    <path class="cls-4" d="M762.46,187.27c.02.27.03.55.03.83,0,5.01-3.14,9.06-7,9.06s-7-4.06-7-9.06,3.14-9.06,7-9.06c.14,0,.27.02.4.03-2.68-2.06-5.71-3.22-8.93-3.22-10.73,0-19.43,12.89-19.43,28.79s8.7,28.79,19.43,28.79,19.43-12.89,19.43-28.79c0-6.52-1.47-12.53-3.93-17.36Z"/>
  </g>
  <g>
    <path class="cls-4" d="M657.53,243.44c-5.02,0-10.46-.56-16.19-1.98h0c-17.98-4.47-29.46-15.22-34.71-21.23-1.35-1.55-2.07-3.56-1.98-5.62,1.74-44.3,19.68-76.8,44.64-80.86,11.73-1.91,21.42,3.33,25.04,5.68,22.16,14.33,27.76,52.08,13.94,93.93-.74,2.23-2.4,4.03-4.57,4.92-5.38,2.23-14.66,5.17-26.17,5.17ZM620.94,211.92c4.62,4.65,12.68,10.99,24.3,13.88h0c11.98,2.98,22.34.99,28.86-1.17,9.73-32.29,6.31-62.06-8.54-71.66-1.6-1.04-7.32-4.34-13.68-3.3-13.53,2.2-28.68,24.69-30.94,62.25Z"/>
    <path class="cls-4" d="M660.06,188.58c0,.18.02.35.02.53,0,5.01-3.14,9.06-7,9.06s-7-4.06-7-9.06,3.14-9.06,7-9.06c.14,0,.27.02.41.03-2.48-1.89-5.28-2.96-8.26-2.96-9.98,0-18.08,11.99-18.08,26.78s8.09,26.78,18.08,26.78,18.08-11.99,18.08-26.78c0-5.7-1.2-10.97-3.25-15.32Z"/>
  </g>
  <path class="cls-4" d="M597.62,154.95c1.08-41.56,55.84-65.16,86.81-37.39-9.32-.67-17.81-.61-25.91.33-25.14,2.74-45.27,17.14-60.9,37.06h0Z"/>
  <g>
    <path class="cls-3" d="M770.17,265.61c.22,3.13-18.63,8.77-60.77,13.86-28.28,3.42-51.84,4.75-68.24,5.33,2.27-8.39,5.92-20.31,11.73-34.12,10.03-23.86,15.05-35.79,25.59-39.45,13.9-4.83,31.83,4.52,40.52,15.99,7.37,9.74,3.5,15.19,10.66,23.46,14.13,16.31,40.25,11.13,40.52,14.93Z"/>
    <path class="cls-1" d="M740.32,275.21c-25.32-.38-36.27-7.99-41.58-14.93-5.54-7.24-5.62-15.55-13.86-21.32-7.21-5.05-15.99-5.06-22.34-4.25"/>
  </g>
  <path class="cls-4" d="M735.93,117.12c11.65-20.51,40.43-27.67,62.04-18.62,21.92,8.24,37.99,33.25,32.27,56.15-4.08-10.28-9.28-18.78-15.78-25.68-20.28-22-51.82-25.03-78.52-11.85h0Z"/>
  <path class="cls-4" d="M755.75,640.44c-76.63,49.65-86.66,130.86-50.35,209.96,16.62,35.95,40.72,68.37,68.35,96.74,46.1,48.21,102.42,85.16,162.43,113.83,37.85,17.93,145.3,71.74,168.65,16.77,19.12-49.85-17.38-139.1-37.62-187.12-41.82-99.14-113.71-184.4-207.53-238.38,80.16,37.54,147.74,101.31,193.86,176.97,34.7,58.57,97.54,190.76,70.41,256.66-16.61,40.97-64.07,41.49-100.75,32.04-33.78-8.18-65.77-23-96.36-38.13-106.65-51.14-218.34-143.92-246.88-263.53-16.92-72.74,8.66-140.26,75.79-175.83h0Z"/>
  <path class="cls-4" d="M735.67,854.19c36.09,23.76,78.7,38.84,122.09,35.07,27.04-2.29,55.14-12.24,72.93-33.07,27.4-33.95,19.66-82.79,5.74-121.27,24.74,37.72,35.52,92.22,6.16,130.9-20.16,25.44-52.41,37.17-83.84,38.68-45.75,2.24-91.69-17.47-123.08-50.31h0Z"/>
  <path class="cls-4" d="M814.79,948.66c44.48,26.57,88.42,53.09,134.66,75.81,25.6,11.55,69.28,34.31,96.29,23.21,22.48-8.75,15.44-49.43,12.62-68.74-8.21-47.96-25.39-93.48-48.13-137.15,31.06,41.54,53.45,90.84,63.26,142.33,3.38,21.67,7.51,46.68-6.06,66.28-24.84,29.51-67.4,12.83-96.14.6-56.92-26.3-108.55-62.48-156.51-102.33h0Z"/>
  <g>
    <path class="cls-6" d="M1134.83,1184.85c-18.89-20.86-37.79-41.73-56.68-62.59"/>
    <polygon class="cls-4" points="1128.84 1190.26 1078.14 1122.26 1140.81 1179.43 1128.84 1190.26 1128.84 1190.26"/>
  </g>
  <g>
    <path class="cls-6" d="M1155.72,1179.83c-18.89-20.86-37.79-41.73-56.68-62.59"/>
    <polygon class="cls-4" points="1149.74 1185.25 1099.03 1117.25 1161.7 1174.42 1149.74 1185.25 1149.74 1185.25"/>
  </g>
  <g>
    <path class="cls-6" d="M1158.08,1159.76c-13.07-14.43-26.13-28.85-39.2-43.28"/>
    <polygon class="cls-4" points="1152.1 1165.18 1118.88 1116.48 1164.06 1154.34 1152.1 1165.18 1152.1 1165.18"/>
  </g>
  <path class="cls-4" d="M681.78,993.79c-103.19-25.04-170.78-131.23-152.87-235.4,2.43-14.32,6.12-28.42,11.87-41.62-9.44,58.99-1.63,119.86,27.92,171.74,25.75,45.96,65.95,81.21,113.09,105.28h0Z"/>
  <path class="cls-4" d="M581.12,538.64c-9.84,41.51-24.52,107.26,40.14,101.51,47.28-4.85,89.12-30.63,129.1-55.13-37.05,33.71-94.86,71.6-147.49,65.09-55.16-8.7-38.61-76-21.75-111.47h0Z"/>
  <path class="cls-4" d="M932.53,153.31c-6.2-7.03-14.43-10.53-22.52-12.11,7.02-4.66,19.39-13.63,20.64-28.93.79-9.65-3.1-19.62-10.16-26.01-10.5-9.51-24.33-8.1-30.98-7.43-7.59.77-19.52,3.65-32.73,13l8.87,13.59c7.29-5.32,15.9-9.56,25.5-10.53,5.31-.54,13.34-1.36,18.51,3.33,3.36,3.04,5.29,8.04,4.9,12.73-.69,8.4-9.44,14.15-14.67,17.58-5.97,3.92-12.35,6.18-18.6,7.36l8.61,20.76c9.78-1.2,23.57-.57,30.52,7.32,1.51,1.72,5.53,6.27,4.7,10.34-.63,3.1-3.72,4.99-3.76,5.01-4.23,2.54-10.7.06-14.57-1.43-5.81-2.23-10.34-5.87-13.81-9.77l2.97,22.55c1.61.83,3.29,1.61,5.07,2.29,3.53,1.36,9.41,3.61,15.97,3.61,4.1,0,8.46-.88,12.68-3.42,2.16-1.3,9.36-6.25,11.27-15.63,2.43-11.94-5.73-21.19-8.41-24.23Z"/>
  <path class="cls-4" d="M1154.82,1103.47c-7.71-20.97-18.82-46.01-33.14-74.69l-1.11,34.87c7.77,16.79,14.17,31.97,19.1,45.39,19,51.68,11.24,63.11,8.41,65.38-1.04.83-2.67,1.69-6.91,1.77-.22,0-.43,0-.65,0-28.1,0-77.32-32.41-113.79-59.71-8.46-6.33-16.76-12.78-24.73-19.14l-45.1-16.38c16.89,14.46,38,31.85,60.16,48.44,55.79,41.77,97.34,62.93,123.54,62.93.29,0,.58,0,.87,0,4.43-.08,10.98-.72,16.71-5.32,14.41-11.56,13.34-38.11-3.36-83.54Z"/>
  <g>
    <path class="cls-4" d="M670.16,1116.7c-9.64,29.39-19.74,51.45-37.73,63.61-6.25,4.22-12.59,6.67-18.84,7.26-11.59,1.1-22.92-2.23-24.17-4.98-.1-.23.06-1.81,2.75-5.41,3.47-4.66,9.5-10.49,16.47-17.25,18.6-18.02,44.06-42.69,60.45-80.54.53-1.23,1.03-2.47,1.53-3.71l-13.14-10.72c-1.01,2.7-2.07,5.38-3.21,8.02-15.11,34.91-39.25,58.29-56.87,75.37-16.63,16.12-28.65,27.76-22.69,40.92,5.29,11.67,22.46,14.65,34.43,14.65,2.2,0,4.22-.1,5.96-.27,8.97-.85,17.83-4.2,26.35-9.95,13.64-9.22,28.41-24.31,44.03-71.95,4.71-14.37,8.81-29.08,12.28-44.01l-16.87,1.06c-3.11,12.84-6.68,25.51-10.74,37.92Z"/>
    <path class="cls-4" d="M895.77,1148.38c-9.95-9.37-22.33-21.04-29.81-37.83-2.96-6.64-4.97-13.75-6.08-21.28l-16.5-1.81c1.12,10.5,3.72,20.41,7.84,29.66,8.8,19.75,23.07,33.19,33.49,43,4.63,4.36,13.25,12.48,12.53,14.53-1.18,3.37-13.91,7.6-25.89,4.53-15.28-3.91-23.32-19.98-32.25-40.58-7.21-16.63-11.8-34.4-13.77-53.12l-16.38-1.8c1.92,21.62,7.03,42.15,15.34,61.33,8.42,19.43,18.9,43.62,43.06,49.8,4.08,1.04,8.47,1.57,12.85,1.57,14.23,0,28.46-5.49,32.27-16.4,4.17-11.94-5.5-21.05-16.7-31.6Z"/>
  </g>
  <g>
    <path class="cls-4" d="M839.48,1080.52c-14.65-1.46-41.97-6.76-70-15.29-.78-.24-1.57-.5-2.35-.74-33.34-13.23-65.94-28.76-97.5-46.49l-11.17-6.38s0,0,0,0c0,0,0,0,0,0,21.93,17.03,44.83,32.95,68.54,47.74-6.41,5.27-19.57,13.67-37.36,12.53-27.61-1.77-41.91-25.67-42.51-26.69l-2.5-4.27-4.94.29c-11.01.65-22.11.31-32.97-1.03-4.23-.52-26.74-3.69-54.41-15.08-36.69-15.1-65.16-37.27-84.61-65.91-18.12-26.67-27.87-58.75-29.82-98.08-4.66-94.25,39.86-153.81,87-216.86,45.5-60.87,92.56-123.8,97.17-221.33,1.24-26.25-.81-50.43-2.98-76.04-3.76-44.27-8.02-94.45,5.02-167.15h0c7.01-39.11,18.09-78.58,51.44-102.46,14.12-10.11,39.14-22.16,78.15-22.16h1.63c13.26-.03,44.34-.11,72.03,17.56,23.66,15.1,40.73,40.91,52.21,78.92,18.51,61.29,7.5,105.43-5.24,156.54-11.88,47.63-25.34,101.61-17.65,179.76,3.8,38.68,15.3,83.86,38.22,173.88,1.12,4.41,2.19,8.56,3.22,12.5l20.73,14.77c-2.51-8.81-5.2-19.02-8.32-31.24-22.71-89.23-34.11-134.02-37.8-171.48-7.41-75.38,5.69-127.92,17.25-174.28,13.32-53.42,24.83-99.56,5.04-165.11-12.64-41.86-31.93-70.6-58.98-87.86-31.68-20.21-66.07-20.14-80.75-20.1h-1.6c-43.29,0-71.5,13.69-87.54,25.18-38.03,27.23-50.32,70.28-57.93,112.73-13.41,74.79-9.05,126.1-5.21,171.36,2.13,25.06,4.13,48.73,2.94,73.91-4.38,92.59-49.93,153.52-93.98,212.43-23.35,31.23-47.49,63.52-64.67,99.71-19.4,40.87-27.75,82.61-25.52,127.61,2.1,42.37,12.76,77.16,32.59,106.35,50.02,73.64,140.28,86.69,150.4,87.93,10.29,1.26,20.78,1.71,31.22,1.34,6.49,9.02,23.78,28.59,52.63,30.44,23.53,1.51,40.82-9.68,49.05-16.51,8.91,3.33,18.01,6.42,27.12,9.19,25.57,7.78,54.26,14.03,73.1,15.91,5.21.52,10.58.78,16.07.78,20.06,0,41.66-3.43,62.33-10,9.9-3.15,19.54-7,28.83-11.47l-18.82-9.28c-32.12,12.93-63.88,16.21-86.8,13.92Z"/>
    <path class="cls-4" d="M659.12,1012.13c.56.43,1.09.85,1.61,1.25-.66-.51-1.22-.94-1.61-1.25Z"/>
    <path class="cls-4" d="M658.47,1011.62s.05.04.15.12c-.05-.04-.1-.08-.15-.12Z"/>
    <path class="cls-4" d="M671.8,1021.98c.22.17.4.31.54.42-.14-.11-.32-.25-.54-.42Z"/>
    <path class="cls-4" d="M670.25,1020.77c.66.51,1.17.91,1.55,1.2-.41-.32-.94-.73-1.55-1.2Z"/>
    <path class="cls-4" d="M669.28,1020.02c.35.27.67.52.96.75-.3-.23-.63-.49-.96-.75Z"/>
    <path class="cls-4" d="M669.28,1020.02c-.52-.4-1.09-.85-1.75-1.36.62.48,1.2.93,1.75,1.36Z"/>
    <path class="cls-4" d="M672.34,1022.4c.47.36.53.41,0,0h0Z"/>
    <path class="cls-4" d="M664.44,1016.26c.6.47,1.21.94,1.82,1.41-.56-.44-1.17-.91-1.82-1.41Z"/>
  </g>
  <g>
    <path class="cls-4" d="M678.92,1174.41c-6.8-.63-13.83-1.28-23.03-6.32-.48-.26-.99-.55-1.52-.86l-9.08,13.39c.99.58,1.95,1.13,2.86,1.63,12.14,6.64,22.05,7.56,29.29,8.23,7.62.71,10.42,1.15,13.59,4.93,2.61,3.12,3.84,6.25,3.54,9.05-.62,5.9-8.2,9.62-8.27,9.65-6.13,2.83-12.96.61-20.6-2.35-9.29-3.6-14.07-7.91-19.12-12.48-3.82-3.45-8.04-7.26-14.1-10.64l-22.91,8.96c4,.66,7.76,1.75,11.27,3.27,6.59,2.86,10.45,6.35,14.92,10.39,5.65,5.1,12.04,10.88,24.11,15.56,5.01,1.94,12.23,4.74,20.25,4.74,4.17,0,8.55-.76,12.94-2.78,1.63-.75,16.01-7.79,17.56-22.63.76-7.24-1.74-14.53-7.22-21.08-7.59-9.07-16.17-9.87-24.47-10.64Z"/>
    <path class="cls-4" d="M583.07,1182.61c-19.71,3.21-38.65,8.27-56.6,15.14-10.61,4.06-20.52,8.61-29.26,12.63-19.33,8.87-36.02,16.53-43.86,10.94-2.88-2.05-5.63-6.29-5.27-9.82.29-2.81,4.04-12.72,40.03-22.45,21.78-5.89,44.31-8.61,48.6-9.09,9.72-1.1,19.55-1.65,29.43-1.65,5.43,0,10.87.17,16.33.5l12.85-15.13c-20.33-2.07-40.57-2-60.42.24-4.5.51-28.1,3.35-51.01,9.55-33.3,9.01-50.27,20.91-51.87,36.37-1.07,10.35,5.23,19.82,11.95,24.62,4.95,3.53,10.33,5.01,16.17,5.01,12.4,0,26.89-6.65,43.8-14.41,8.94-4.1,18.18-8.34,28.3-12.22,20.48-7.84,42.38-13.19,65.3-15.97,1.33-.05,2.64-.04,3.93,0l-8.49-1.38-9.92-12.86Z"/>
    <path class="cls-4" d="M998.52,1230.55c-2.39-6.69-6.33-11.75-11.46-15.92,4.59-2.87,8.07-6.73,10.16-11.44,3.87-8.72,2.6-20.04-3.11-27.53-9.29-12.2-25.99-10.8-42.14-9.44-4.61.39-9.38.79-13.93.88-17.28.35-35.33-5.55-53.83-17.57l.04.05,24.24,26.2-17.82,12.62c6.18,2.77,12.12,5.73,17.79,8.88,13.86,7.7,21.42,10.67,36.47,16.59,1.02.4,2,.8,2.95,1.18,5.47,2.2,10.73,4.3,16.62,4.89,10.33,4.77,16.33,9.08,18.82,16.04,1.74,4.88,1.86,8.93.34,12.04-2.62,5.37-10.12,7.16-11.59,7.47-6.99,1.44-13.56-1.18-21.28-5.57-15.74-8.94-24.97-18.19-34.73-27.98-3.83-3.84-7.79-7.8-12.23-11.85-8.23-7.5-17.41-14.23-27.39-20.13l-14.67-2.5-4-4.7-.43.94c-9.15-1.74-18.31-2.25-27.39-1.51-10.16.83-41.1,3.37-45.89,22.19-2.05,8.03,1.25,17.59,8.03,23.25,4.02,3.36,8.57,4.86,14.47,4.86,10.35,0,24.86-4.61,48.01-11.97,8.7-2.77,17.48-5.59,26.18-8.42,4.28,3.13,8.37,6.42,12.21,9.92,4.16,3.79,7.98,7.62,11.68,11.33,10.1,10.12,20.54,20.59,38.19,30.61,7.24,4.11,15.73,8.07,25.39,8.07,2.31,0,4.68-.23,7.12-.73,4.99-1.03,17.22-4.67,22.84-16.2,2.4-4.92,4.41-13.18.34-24.54ZM982.47,1196.63c-2.24,5.05-9.27,6.68-12.19,7.14-.65.1-1.27.17-1.9.19-3.78-1.67-7.8-3.3-12-5-10.76-4.37-23.69-9.61-37.82-17.52,6.65,1.31,13.27,1.92,19.79,1.78,5.06-.1,10.09-.52,14.96-.93,12.36-1.04,24.03-2.02,27.95,3.13,2.19,2.87,2.71,7.79,1.2,11.2ZM849.69,1205.13c-29.89,9.5-43.4,13.33-47.26,10.1-2.18-1.82-3.19-5.08-2.73-6.88.2-.78,2.78-7.73,31.57-10.09,2.27-.19,4.54-.28,6.82-.28,7.84,0,15.76,1.1,23.68,3.28-4.03,1.3-8.06,2.58-12.08,3.86Z"/>
    <path class="cls-4" d="M608.52,1197.99l1.03-.4c-2.59-.43-5.29-.67-8.07-.74l7.04,1.14Z"/>
  </g>
  <path class="cls-4" d="M424.75,296.97c-88.54-16.28-180.68,21.61-241.93,85.46-8.3,9.17-15.93,19.65-22.5,30.26-13.16,21.4-23.69,45.17-25.46,70.69-.67,12.02-.67,27.56,9.32,35.66l5.77-12.18c-2.73-5.45-1.95-14.27-1.17-22.22,3.88-33.28,27.09-67.82,47.36-89.43,48.65-47.77,115.68-79.45,184.3-80.66,93.31-1.69,171.73,55.65,217.75,133.94,3.18,5.1,6.2,10.29,9.05,15.56l3.2-23.62c-38.25-71.72-103.99-129.46-185.7-143.46Z"/>
  <path class="cls-4" d="M504.91,651.89c-1.32-7.29-5.32-21.32-17.3-33.47-13.65-13.85-29.78-17.56-38.18-18.54l1.37-11.76c9.94,1.16,29.04,5.57,45.23,21.99,14.22,14.42,18.96,31.05,20.53,39.68l-11.65,2.11Z"/>
  <path class="cls-4" d="M192.15,618.78c4.37-23.39,20.24-41.15,35.86-41.15,1.24,0,2.48.11,3.71.34,7.63,1.43,14.19,7.23,18.48,16.33,4.81,10.2,6.11,22.99,3.68,36.01h0s16.63,15.25,16.63,15.25c1.23-3.74,2.24-7.61,2.98-11.59,3.2-17.1,1.33-34.21-5.24-48.18-7.09-15.06-18.77-24.81-32.86-27.44-7.36-1.37-14.8-.68-21.95,1.91l-22.47,44.58-17.03,4.06c-.53,2.04-1,4.11-1.39,6.21-.83,4.42-1.31,8.85-1.46,13.22l20.46-5.62c.17-1.31.37-2.62.61-3.93Z"/>
  <g>
    <path class="cls-4" d="M324.86,803.54c-5.58-10.68-11.34-21.73-13.77-38.5-2.18-15.05-.32-25.47,1.49-35.54,1.7-9.51,3.44-19.24,1.39-31.35l-22.25-9.15c6.16,15.26,4.51,24.45,2.24,37.16-1.97,11.02-4.21,23.51-1.59,41.59,2.89,19.95,9.71,33.01,15.73,44.54.88,1.69,1.74,3.33,2.55,4.92,3.61,7.11-4.66,14.35-11.21,9.8-26.88-18.67-63.03-36.89-108.62-45.48-41.51-7.82-78.63-5.28-108.56.77-7.69,1.56-12.46-8.13-6.56-13.3.07-.06.15-.13.22-.19,9.77-8.57,20.84-18.29,30.74-35.85,8.98-15.92,11.4-28.37,13.54-39.36,2.47-12.68,4.25-21.84,15.5-33.85,10.01-10.68,20.4-16.26,27.35-19.53,10.39-4.89,31.93-15.05,58.89-10.01.15.03.3.06.45.09,26.63,5.13,42.41,21.71,50.88,30.62,5.14,5.4,12.02,13.88,16.93,24.57l-24.42-56.58c-10.1-7.19-23.22-14-39.82-17.19-.18-.04-.36-.07-.55-.1-32.97-6.16-59.2,6.2-70.43,11.49-8.35,3.93-20.86,10.67-33.08,23.71-14.98,15.98-17.67,29.81-20.27,43.17-1.95,10.05-3.97,20.44-11.44,33.68-8.32,14.76-17.69,22.98-26.74,30.92-11.92,10.46-24.24,21.27-29.27,44.32-1.26,5.76-3.12,17.09-1.48,28.23,5.78,39.24,55.77,72.65,128.2,86.18,1.8.34,3.62.66,5.45.97l1.66.35c2.93.63,5.84,1.21,8.73,1.75,72.44,13.53,131.03.47,150.62-34.09,5.55-9.79,7.9-21.03,8.81-26.86,3.63-23.31-3.96-37.84-11.29-51.89ZM312.86,868.98c-.59,1.36-1.24,2.7-1.96,3.98-7.56,13.34-24.41,22.71-48.72,27.08-23.19,4.17-51.1,3.43-81.19-2.11l.07-.4-9.54-1.57c-33.56-5.51-62.91-15.53-84.8-28.96-20.88-12.81-33.09-27.55-35.31-42.64-.42-2.84-.5-5.8-.39-8.61.12-3.17,2.24-5.93,5.26-6.92,30.93-10.1,76.96-18.73,130.94-8.56,56.86,10.71,97.94,37.52,123.66,59.86,2.53,2.19,3.31,5.78,1.99,8.85Z"/>
    <path class="cls-4" d="M290.2,685.48l1.52,3.52-.09-.23c-.45-1.12-.93-2.21-1.43-3.29Z"/>
  </g>
</svg>