<svg width="109" height="35" viewBox="0 0 109 35" fill="none" xmlns="http://www.w3.org/2000/svg">
<path d="M0.961492 20.5417C0.319742 19.8432 0 19.0325 0 18.1085V3.96161C0 2.84931 0.310671 1.95699 0.933146 1.28802C1.55562 0.617928 2.35724 0.283447 3.33801 0.283447H9.56049C11.1161 0.283447 12.5028 0.615661 13.7183 1.28122C14.9337 1.94678 15.8771 2.85158 16.5472 3.99789C17.2161 5.14419 17.5518 6.41976 17.5518 7.82458C17.5041 9.83373 16.859 11.4982 15.614 12.8191C14.3691 14.14 12.691 14.9269 10.5787 15.182C10.1444 15.2387 9.72036 15.2671 9.30538 15.2671H6.68849V18.1674C6.68849 19.1675 6.35401 19.9883 5.68391 20.629C5.05236 21.2605 4.27909 21.5769 3.36409 21.5769C2.423 21.5746 1.62138 21.231 0.961492 20.5417ZM6.68962 9.40854H9.3632C9.80653 9.40854 10.183 9.25321 10.4948 8.9414C10.8247 8.61146 10.9903 8.23843 10.9903 7.82344C10.9903 7.39939 10.8349 7.03089 10.5231 6.72022C10.1841 6.40955 9.79746 6.25308 9.3632 6.25308H6.68962V9.40854Z" fill="white"/>
<path d="M19.4747 20.6266C18.8148 19.9667 18.4849 19.1549 18.4849 18.1934V3.43771C18.4849 2.49436 18.8125 1.69954 19.4679 1.05439C20.1233 0.408104 20.9181 0.0849609 21.8512 0.0849609C22.4453 0.0849609 22.9987 0.233493 23.5134 0.530558C24.027 0.827622 24.433 1.2358 24.73 1.75396C25.0271 2.27326 25.1756 2.84358 25.1756 3.46605V18.2501C25.1756 18.6934 25.0928 19.1254 24.9284 19.545C24.7629 19.9645 24.5203 20.3352 24.2005 20.6561C23.5406 21.2877 22.7583 21.604 21.8523 21.604C20.8897 21.6029 20.0972 21.2775 19.4747 20.6266Z" fill="white"/>
<path d="M39.5731 15.5766C40.572 15.3883 41.2795 15.0062 41.6945 14.4303H39.9552C39.1252 14.4303 38.4256 14.1377 37.8553 13.5527C37.285 12.9676 36.9993 12.2658 36.9993 11.4449C37.0185 10.8984 37.1546 10.4051 37.4097 9.96635C37.6648 9.52756 38.0152 9.17607 38.4631 8.91188C38.9109 8.6477 39.3985 8.51618 39.9268 8.51618H45.5416C47.6063 8.51618 48.6392 9.65341 48.6392 11.9256C48.6392 12.5855 48.5735 13.2647 48.4408 13.9631C48.3081 14.8407 47.9839 15.7455 47.4646 16.6798C46.8897 17.7082 46.1561 18.5926 45.2649 19.333C44.3737 20.0733 43.351 20.6369 42.1956 21.0235C41.0403 21.4101 39.7704 21.604 38.3837 21.604C37.5911 21.604 36.7147 21.5281 35.7532 21.3773C34.4334 21.1505 33.2383 20.757 32.168 20.1958C31.0977 19.6346 30.1623 18.9112 29.3606 18.0245C28.559 17.1378 27.9184 16.1287 27.4377 14.9972C26.8809 13.6581 26.6031 12.2998 26.6031 10.9222C26.6031 9.11144 27.0624 7.39708 27.9819 5.7791C28.9014 4.16112 30.1997 2.82433 31.8789 1.76873C33.7078 0.628093 35.7917 0.0566406 38.1297 0.0566406C38.4313 0.0566406 38.8656 0.0759158 39.4313 0.113332C40.4405 0.19837 41.4258 0.391122 42.3873 0.693855C43.3113 0.995455 44.1787 1.3923 44.9894 1.88211C46.6391 2.96719 47.4646 4.1271 47.4646 5.36185C47.4646 6.09771 47.1255 6.76214 46.4464 7.35626C45.9656 7.78032 45.3851 7.99348 44.7071 7.99348C44.2071 7.99348 43.6742 7.87556 43.1084 7.63972H43.08L41.8634 7.00251C41.5992 6.85171 41.3963 6.7474 41.2557 6.69184C40.0765 6.14533 38.9789 5.87094 37.9608 5.87094C37.141 5.87094 36.4051 6.03421 35.7543 6.35962C35.1035 6.68503 34.5615 7.16351 34.1284 7.79506C33.6941 8.4266 33.4073 9.15793 33.2656 9.98789C33.2089 10.2521 33.1805 10.5117 33.1805 10.7657C33.1805 11.0956 33.2089 11.4165 33.2656 11.7272C33.4356 12.5662 33.7372 13.2862 34.1704 13.8849C34.6035 14.4835 35.1534 14.9461 35.8178 15.2716C36.4822 15.597 37.234 15.7602 38.0742 15.7602C38.5821 15.7602 39.0821 15.699 39.5731 15.5766Z" fill="white"/>
<path d="M2.44483 32.7072C1.87902 32.7072 1.41584 32.5602 1.05528 32.2662C0.694724 31.9722 0.475615 31.5812 0.397956 31.093L0.930475 30.9599C0.99704 31.3704 1.16623 31.6838 1.43803 31.9001C1.71539 32.1109 2.05653 32.2163 2.46147 32.2163C2.69999 32.2163 2.91355 32.1691 3.10215 32.0748C3.2963 31.9805 3.44885 31.8474 3.55979 31.6755C3.67073 31.5035 3.7262 31.3066 3.7262 31.0847C3.7262 30.8462 3.66241 30.6548 3.53483 30.5106C3.40724 30.3608 3.23806 30.2332 3.02727 30.1278C2.81648 30.0224 2.57796 29.9198 2.3117 29.82C2.01215 29.7035 1.74312 29.5787 1.5046 29.4455C1.26607 29.3069 1.07747 29.1404 0.938796 28.9463C0.805666 28.7521 0.739101 28.5108 0.739101 28.2224C0.739101 27.934 0.808439 27.6816 0.947116 27.4652C1.08579 27.2433 1.27994 27.0686 1.52956 26.941C1.78472 26.8134 2.07872 26.7497 2.41154 26.7497C2.76656 26.7497 3.07997 26.8301 3.35177 26.9909C3.62358 27.1518 3.84269 27.3876 4.0091 27.6982L3.57643 27.9645C3.4433 27.7315 3.27689 27.5512 3.07719 27.4236C2.88305 27.296 2.65562 27.2322 2.3949 27.2322C2.17302 27.2322 1.97887 27.2739 1.81246 27.3571C1.64605 27.4403 1.51569 27.5568 1.42139 27.7065C1.32709 27.8507 1.27994 28.0172 1.27994 28.2058C1.27994 28.4055 1.33264 28.5746 1.43803 28.7133C1.54897 28.852 1.70429 28.9713 1.90399 29.0711C2.10923 29.1709 2.34775 29.2708 2.61956 29.3706C2.94129 29.4927 3.22419 29.6258 3.46826 29.77C3.71788 29.9087 3.91203 30.0807 4.0507 30.2859C4.18938 30.4912 4.25872 30.7463 4.25872 31.0514C4.25872 31.3731 4.18106 31.6588 4.02574 31.9084C3.87042 32.158 3.65686 32.355 3.38506 32.4992C3.11325 32.6379 2.79984 32.7072 2.44483 32.7072ZM8.23318 32.6906C7.85598 32.6906 7.5176 32.6018 7.21806 32.4243C6.92407 32.2413 6.69386 31.9916 6.52745 31.6755C6.36104 31.3537 6.27783 30.9876 6.27783 30.5771C6.27783 30.1666 6.35827 29.8033 6.51913 29.4871C6.68554 29.1709 6.91575 28.9241 7.20974 28.7466C7.50928 28.5635 7.85043 28.472 8.23318 28.472C8.61592 28.472 8.95152 28.5635 9.23997 28.7466C9.53397 28.9241 9.76417 29.1709 9.93058 29.4871C10.1025 29.8033 10.1885 30.1666 10.1885 30.5771C10.1885 30.9876 10.1025 31.3537 9.93058 31.6755C9.76417 31.9916 9.53397 32.2413 9.23997 32.4243C8.94598 32.6018 8.61038 32.6906 8.23318 32.6906ZM8.23318 32.2246C8.52162 32.2246 8.77124 32.1553 8.98203 32.0166C9.19837 31.8779 9.36478 31.6865 9.48127 31.4425C9.59776 31.1929 9.656 30.9044 9.656 30.5771C9.656 30.2443 9.59776 29.9559 9.48127 29.7118C9.36478 29.4622 9.19837 29.2708 8.98203 29.1377C8.77124 28.999 8.52162 28.9297 8.23318 28.9297C7.94473 28.9297 7.69234 28.999 7.476 29.1377C7.25966 29.2763 7.09048 29.4677 6.96844 29.7118C6.85195 29.9559 6.79371 30.2443 6.79371 30.5771C6.79371 30.9044 6.85195 31.1929 6.96844 31.4425C7.09048 31.6865 7.25966 31.8779 7.476 32.0166C7.69234 32.1553 7.94473 32.2246 8.23318 32.2246ZM12.4443 32.6323V28.5303H12.9768V29.4871L12.852 29.5287C12.9241 29.3013 13.0267 29.1099 13.1598 28.9546C13.293 28.7993 13.451 28.68 13.6341 28.5968C13.8227 28.5136 14.0307 28.472 14.2581 28.472C14.7019 28.472 15.0486 28.6051 15.2982 28.8714C15.5478 29.1321 15.6726 29.5315 15.6726 30.0696V32.6323H15.1484V30.2609C15.1484 29.8061 15.0625 29.4705 14.8905 29.2542C14.7241 29.0378 14.4717 28.9297 14.1333 28.9297C13.9004 28.9297 13.6951 28.9879 13.5176 29.1044C13.3457 29.2153 13.2125 29.3956 13.1182 29.6452C13.0239 29.8893 12.9768 30.2083 12.9768 30.6021V32.6323H12.4443ZM21.4711 32.6323V26.8329H23.0353C23.9728 26.8329 24.6995 27.0908 25.2153 27.6067C25.7368 28.117 25.9975 28.8409 25.9975 29.7784C25.9975 30.6992 25.7395 31.4064 25.2237 31.9001C24.7133 32.3883 23.9811 32.6323 23.027 32.6323H21.4711ZM22.0119 32.1331H22.9771C23.5041 32.1331 23.9506 32.0499 24.3167 31.8835C24.6828 31.7171 24.9602 31.4591 25.1488 31.1097C25.3429 30.7602 25.44 30.3109 25.44 29.7617C25.44 29.2126 25.3429 28.7577 25.1488 28.3971C24.9602 28.0366 24.6856 27.7703 24.325 27.5984C23.9645 27.4208 23.5318 27.3321 23.027 27.3321H22.0119V32.1331ZM30.9381 32.6323L30.9048 31.7004V30.0779C30.9048 29.7007 30.8078 29.415 30.6136 29.2209C30.4195 29.0267 30.1338 28.9297 29.7566 28.9297C29.5125 28.9297 29.2879 28.9796 29.0826 29.0794C28.8774 29.1737 28.6832 29.3374 28.5002 29.5703L28.1174 29.2458C28.3393 28.9796 28.5861 28.7854 28.858 28.6634C29.1353 28.5358 29.4459 28.472 29.7899 28.472C30.3113 28.472 30.7135 28.6107 30.9964 28.888C31.2793 29.1599 31.4207 29.5565 31.4207 30.0779V32.6323H30.9381ZM29.4903 32.6906C29.1852 32.6906 28.919 32.6379 28.6915 32.5325C28.4697 32.4271 28.2977 32.2829 28.1757 32.0998C28.0592 31.9112 28.0009 31.6921 28.0009 31.4425C28.0009 31.2206 28.0425 31.0348 28.1257 30.885C28.2145 30.7297 28.3282 30.6076 28.4669 30.5189C28.6167 30.419 28.7858 30.3497 28.9744 30.3109C29.1686 30.272 29.3766 30.2526 29.5985 30.2526H30.9548V30.652H29.6651C29.5042 30.652 29.3461 30.6659 29.1908 30.6936C29.041 30.7214 28.9134 30.7768 28.808 30.86C28.7193 30.9211 28.6499 31.0015 28.6 31.1013C28.5556 31.1956 28.5335 31.3093 28.5335 31.4425C28.5335 31.6921 28.6222 31.8918 28.7997 32.0416C28.9828 32.1858 29.2296 32.2579 29.5402 32.2579C29.7899 32.2579 30.0173 32.1997 30.2225 32.0832C30.4278 31.9611 30.5914 31.7947 30.7135 31.5839C30.841 31.3731 30.9048 31.1374 30.9048 30.8767L31.1295 31.1263C31.1017 31.4369 31.013 31.7115 30.8632 31.95C30.7135 32.1886 30.5193 32.3716 30.2808 32.4992C30.0423 32.6268 29.7788 32.6906 29.4903 32.6906ZM36.6386 32.6323L35.1742 30.3941L34.2756 31.3343V30.6603L36.3391 28.5303H37.0214L35.557 30.0363L37.2627 32.6323H36.6386ZM33.8263 32.6323V26.8329H34.3588V32.6323H33.8263ZM39.2977 32.6323V28.5303H39.8219V32.6323H39.2977ZM39.2478 27.7315V26.8329H39.8718V27.7315H39.2478ZM45.0789 32.6323L43.6144 30.3941L42.7158 31.3343V30.6603L44.7793 28.5303H45.4616L43.9972 30.0363L45.7029 32.6323H45.0789ZM42.2665 32.6323V26.8329H42.799V32.6323H42.2665ZM50.4106 32.6323L50.3773 31.7004V30.0779C50.3773 29.7007 50.2803 29.415 50.0861 29.2209C49.892 29.0267 49.6063 28.9297 49.2291 28.9297C48.985 28.9297 48.7604 28.9796 48.5551 29.0794C48.3499 29.1737 48.1557 29.3374 47.9727 29.5703L47.5899 29.2458C47.8118 28.9796 48.0587 28.7854 48.3305 28.6634C48.6078 28.5358 48.9185 28.472 49.2624 28.472C49.7838 28.472 50.186 28.6107 50.4689 28.888C50.7518 29.1599 50.8932 29.5565 50.8932 30.0779V32.6323H50.4106ZM48.9628 32.6906C48.6577 32.6906 48.3915 32.6379 48.164 32.5325C47.9422 32.4271 47.7702 32.2829 47.6482 32.0998C47.5317 31.9112 47.4734 31.6921 47.4734 31.4425C47.4734 31.2206 47.515 31.0348 47.5982 30.885C47.687 30.7297 47.8007 30.6076 47.9394 30.5189C48.0892 30.419 48.2583 30.3497 48.4469 30.3109C48.6411 30.272 48.8491 30.2526 49.071 30.2526H50.4273V30.652H49.1376C48.9767 30.652 48.8186 30.6659 48.6633 30.6936C48.5135 30.7214 48.3859 30.7768 48.2805 30.86C48.1918 30.9211 48.1224 31.0015 48.0725 31.1013C48.0281 31.1956 48.006 31.3093 48.006 31.4425C48.006 31.6921 48.0947 31.8918 48.2722 32.0416C48.4553 32.1858 48.7021 32.2579 49.0128 32.2579C49.2624 32.2579 49.4898 32.1997 49.695 32.0832C49.9003 31.9611 50.0639 31.7947 50.186 31.5839C50.3135 31.3731 50.3773 31.1374 50.3773 30.8767L50.602 31.1263C50.5743 31.4369 50.4855 31.7115 50.3357 31.95C50.186 32.1886 49.9918 32.3716 49.7533 32.4992C49.5148 32.6268 49.2513 32.6906 48.9628 32.6906ZM59.0547 32.7155C58.5333 32.7155 58.0756 32.5935 57.6818 32.3494C57.2935 32.0998 56.9912 31.7503 56.7748 31.301C56.5585 30.8517 56.4503 30.3275 56.4503 29.7284C56.4503 29.1293 56.5585 28.6079 56.7748 28.1642C56.9967 27.7148 57.3046 27.3682 57.6984 27.1241C58.0978 26.8745 58.5582 26.7497 59.0796 26.7497C59.6455 26.7497 60.1364 26.8911 60.5524 27.174C60.9684 27.4514 61.268 27.8369 61.451 28.3306L60.9435 28.5219C60.7937 28.1336 60.5607 27.8286 60.2445 27.6067C59.9284 27.3848 59.5401 27.2739 59.0796 27.2739C58.6581 27.2739 58.2892 27.3737 57.973 27.5734C57.6624 27.7731 57.4211 28.056 57.2491 28.4221C57.0772 28.7882 56.9912 29.2236 56.9912 29.7284C56.9912 30.2332 57.0772 30.6714 57.2491 31.0431C57.4211 31.4092 57.6624 31.6921 57.973 31.8918C58.2892 32.0915 58.6581 32.1913 59.0796 32.1913C59.296 32.1913 59.5123 32.1636 59.7287 32.1081C59.9505 32.0471 60.1558 31.9445 60.3444 31.8003C60.533 31.656 60.6828 31.4591 60.7937 31.2095C60.9102 30.9543 60.9684 30.6326 60.9684 30.2443V29.77L61.0932 30.1361H59.479V29.6452H61.451V32.6323H60.9684L60.8935 31.4009L60.9851 31.4591C60.8908 31.7587 60.7438 32 60.5441 32.183C60.3444 32.3661 60.1142 32.502 59.8535 32.5907C59.5928 32.6739 59.3265 32.7155 59.0547 32.7155ZM65.4839 32.6906C65.1788 32.6906 64.907 32.6379 64.6684 32.5325C64.4355 32.4271 64.2413 32.2801 64.086 32.0915C63.9307 31.9029 63.8114 31.681 63.7282 31.4258C63.6505 31.1707 63.6117 30.8989 63.6117 30.6104C63.6117 30.3164 63.6505 30.0418 63.7282 29.7867C63.8059 29.526 63.9196 29.2985 64.0694 29.1044C64.2247 28.9047 64.4133 28.7494 64.6352 28.6384C64.8626 28.5275 65.1233 28.472 65.4173 28.472C65.7279 28.472 65.9942 28.5275 66.2161 28.6384C66.4435 28.7438 66.6266 28.8908 66.7652 29.0794C66.9095 29.2625 67.0148 29.4649 67.0814 29.6868C67.1535 29.9087 67.1896 30.1334 67.1896 30.3608C67.1896 30.4052 67.1868 30.4634 67.1813 30.5355C67.1813 30.6076 67.1757 30.6687 67.1646 30.7186H64.1276C64.1387 31.1901 64.2635 31.5562 64.502 31.8169C64.7461 32.0776 65.0734 32.208 65.4839 32.208C65.7446 32.208 65.9664 32.1691 66.1495 32.0915C66.3381 32.0083 66.5184 31.8724 66.6903 31.6838L67.0648 32.0166C66.9095 32.1775 66.7514 32.3078 66.5905 32.4077C66.4296 32.502 66.2577 32.5741 66.0746 32.624C65.8971 32.6684 65.7002 32.6906 65.4839 32.6906ZM66.6654 30.4523C66.6765 30.4079 66.682 30.3636 66.682 30.3192C66.682 30.2693 66.682 30.2221 66.682 30.1777C66.682 30.0335 66.6571 29.8865 66.6071 29.7368C66.5628 29.587 66.4906 29.4511 66.3908 29.329C66.291 29.207 66.1606 29.1072 65.9997 29.0295C65.8389 28.9518 65.6475 28.913 65.4256 28.913C65.1704 28.913 64.9458 28.9768 64.7516 29.1044C64.563 29.232 64.416 29.4012 64.3106 29.6119C64.2053 29.8227 64.1442 30.0613 64.1276 30.3275H66.8401L66.6654 30.4523ZM70.2022 32.6906C69.9692 32.6906 69.7834 32.6185 69.6447 32.4742C69.506 32.3245 69.4367 32.0887 69.4367 31.767V26.8329H69.9609V31.6755C69.9609 31.8641 69.9969 32 70.069 32.0832C70.1412 32.1664 70.2382 32.208 70.3603 32.208C70.4157 32.208 70.4767 32.2024 70.5433 32.1913C70.6099 32.1747 70.6792 32.1553 70.7513 32.1331V32.5824C70.657 32.6157 70.56 32.6406 70.4601 32.6573C70.3658 32.6795 70.2798 32.6906 70.2022 32.6906ZM72.755 32.6323V28.5303H73.2792V32.6323H72.755ZM72.7051 27.7315V26.8329H73.3292V27.7315H72.7051ZM77.0385 32.6906C76.7667 32.6906 76.5198 32.649 76.2979 32.5658C76.0816 32.4826 75.893 32.3716 75.7321 32.2329C75.5768 32.0887 75.4548 31.9306 75.366 31.7587L75.7404 31.4591C75.8458 31.6921 76.0095 31.8835 76.2314 32.0332C76.4588 32.1775 76.7278 32.2496 77.0385 32.2496C77.3325 32.2496 77.5682 32.1858 77.7457 32.0582C77.9232 31.9251 78.012 31.7448 78.012 31.5174C78.012 31.3288 77.9565 31.1845 77.8456 31.0847C77.7402 30.9793 77.6015 30.8961 77.4295 30.8351C77.2631 30.7741 77.0801 30.7214 76.8804 30.677C76.725 30.6382 76.5697 30.5938 76.4144 30.5439C76.2591 30.4884 76.1176 30.4218 75.9901 30.3442C75.868 30.2609 75.771 30.1556 75.6988 30.028C75.6267 29.9004 75.5907 29.7423 75.5907 29.5537C75.5907 29.232 75.7155 28.9713 75.9651 28.7716C76.2203 28.5719 76.5503 28.472 76.9553 28.472C77.2603 28.472 77.5377 28.5386 77.7873 28.6717C78.0425 28.7993 78.2394 28.9962 78.3781 29.2625L78.0369 29.5121C77.9204 29.2958 77.7651 29.1404 77.571 29.0461C77.3824 28.9463 77.1716 28.8964 76.9386 28.8964C76.689 28.8964 76.481 28.9518 76.3146 29.0628C76.1537 29.1737 76.0733 29.3235 76.0733 29.5121C76.0733 29.6508 76.1121 29.7645 76.1898 29.8532C76.2674 29.9364 76.3784 30.0058 76.5226 30.0613C76.6668 30.1167 76.836 30.1666 77.0301 30.211C77.2076 30.2499 77.3824 30.297 77.5543 30.3525C77.7318 30.4079 77.8927 30.4801 78.0369 30.5688C78.1867 30.652 78.3032 30.7657 78.3864 30.91C78.4752 31.0542 78.5195 31.2372 78.5195 31.4591C78.5195 31.7087 78.4585 31.9278 78.3365 32.1164C78.2144 32.2995 78.0425 32.441 77.8206 32.5408C77.5987 32.6406 77.338 32.6906 77.0385 32.6906ZM76.8221 34.3297C76.7278 34.3297 76.6307 34.3159 76.5309 34.2881C76.4311 34.2659 76.3395 34.2299 76.2563 34.18C76.1731 34.13 76.1038 34.0718 76.0483 34.0052L76.2397 33.7972C76.3062 33.8749 76.3922 33.9359 76.4976 33.9803C76.603 34.0246 76.7084 34.0468 76.8138 34.0468C76.958 34.0468 77.0773 34.0163 77.1716 33.9553C77.2659 33.8998 77.313 33.8111 77.313 33.689C77.313 33.5947 77.2798 33.5199 77.2132 33.4644C77.1522 33.4145 77.0717 33.3756 76.9719 33.3479C76.872 33.3257 76.7667 33.3091 76.6557 33.298C76.5448 33.2869 76.4421 33.2786 76.3478 33.273L76.8471 32.5824H77.1882L76.8055 33.065C77.0385 33.0983 77.2354 33.1593 77.3962 33.248C77.5571 33.3368 77.6375 33.4783 77.6375 33.6724C77.6375 33.8832 77.5599 34.0441 77.4046 34.155C77.2492 34.2715 77.0551 34.3297 76.8221 34.3297ZM80.7727 32.6323V28.5303H81.3052V29.587H81.1971C81.247 29.3928 81.3136 29.2264 81.3968 29.0877C81.48 28.9491 81.5798 28.8354 81.6963 28.7466C81.8128 28.6523 81.9376 28.583 82.0707 28.5386C82.2094 28.4942 82.3536 28.472 82.5034 28.472C82.7475 28.472 82.961 28.5192 83.1441 28.6135C83.3327 28.7022 83.4852 28.8409 83.6017 29.0295C83.7182 29.2181 83.7987 29.4594 83.843 29.7534L83.5518 29.77C83.6295 29.4871 83.7293 29.2514 83.8513 29.0628C83.9789 28.8686 84.137 28.7216 84.3256 28.6218C84.5142 28.5219 84.7361 28.472 84.9913 28.472C85.3241 28.472 85.5904 28.5497 85.79 28.705C85.9897 28.8548 86.134 29.0572 86.2227 29.3124C86.3115 29.5676 86.3559 29.8588 86.3559 30.1861V32.6323H85.8317V30.3026C85.8317 30.0197 85.8011 29.7756 85.7401 29.5703C85.6791 29.3651 85.5793 29.207 85.4406 29.0961C85.3019 28.9851 85.1133 28.9297 84.8748 28.9297C84.6695 28.9297 84.4865 28.9851 84.3256 29.0961C84.1703 29.2015 84.0483 29.3651 83.9595 29.587C83.8763 29.8089 83.8347 30.0862 83.8347 30.419V32.6323H83.3022V30.2277C83.3022 29.7894 83.2218 29.4649 83.0609 29.2542C82.9056 29.0378 82.6726 28.9297 82.362 28.9297C82.1567 28.9297 81.9737 28.9851 81.8128 29.0961C81.6519 29.207 81.5271 29.3762 81.4384 29.6036C81.3496 29.8311 81.3052 30.1195 81.3052 30.469V32.6323H80.7727ZM90.4116 32.6906C90.1065 32.6906 89.8347 32.6379 89.5961 32.5325C89.3632 32.4271 89.169 32.2801 89.0137 32.0915C88.8584 31.9029 88.7391 31.681 88.6559 31.4258C88.5783 31.1707 88.5394 30.8989 88.5394 30.6104C88.5394 30.3164 88.5783 30.0418 88.6559 29.7867C88.7336 29.526 88.8473 29.2985 88.9971 29.1044C89.1524 28.9047 89.341 28.7494 89.5629 28.6384C89.7903 28.5275 90.051 28.472 90.345 28.472C90.6556 28.472 90.9219 28.5275 91.1438 28.6384C91.3712 28.7438 91.5543 28.8908 91.6929 29.0794C91.8372 29.2625 91.9426 29.4649 92.0091 29.6868C92.0812 29.9087 92.1173 30.1334 92.1173 30.3608C92.1173 30.4052 92.1145 30.4634 92.109 30.5355C92.109 30.6076 92.1034 30.6687 92.0923 30.7186H89.0553C89.0664 31.1901 89.1912 31.5562 89.4297 31.8169C89.6738 32.0776 90.0011 32.208 90.4116 32.208C90.6723 32.208 90.8942 32.1691 91.0772 32.0915C91.2658 32.0083 91.4461 31.8724 91.618 31.6838L91.9925 32.0166C91.8372 32.1775 91.6791 32.3078 91.5182 32.4077C91.3573 32.502 91.1854 32.5741 91.0023 32.624C90.8248 32.6684 90.6279 32.6906 90.4116 32.6906ZM91.5931 30.4523C91.6042 30.4079 91.6097 30.3636 91.6097 30.3192C91.6097 30.2693 91.6097 30.2221 91.6097 30.1777C91.6097 30.0335 91.5848 29.8865 91.5348 29.7368C91.4905 29.587 91.4184 29.4511 91.3185 29.329C91.2187 29.207 91.0883 29.1072 90.9274 29.0295C90.7666 28.9518 90.5752 28.913 90.3533 28.913C90.0981 28.913 89.8735 28.9768 89.6793 29.1044C89.4907 29.232 89.3437 29.4012 89.2384 29.6119C89.133 29.8227 89.0719 30.0613 89.0553 30.3275H91.7678L91.5931 30.4523ZM95.1299 32.6906C94.8969 32.6906 94.7111 32.6185 94.5724 32.4742C94.4337 32.3245 94.3644 32.0887 94.3644 31.767V26.8329H94.8886V31.6755C94.8886 31.8641 94.9246 32 94.9967 32.0832C95.0689 32.1664 95.1659 32.208 95.288 32.208C95.3434 32.208 95.4045 32.2024 95.471 32.1913C95.5376 32.1747 95.6069 32.1553 95.679 32.1331V32.5824C95.5847 32.6157 95.4877 32.6406 95.3878 32.6573C95.2935 32.6795 95.2075 32.6906 95.1299 32.6906ZM99.3718 32.6906C99.0667 32.6906 98.7949 32.6379 98.5564 32.5325C98.3234 32.4271 98.1293 32.2801 97.974 32.0915C97.8186 31.9029 97.6994 31.681 97.6162 31.4258C97.5385 31.1707 97.4997 30.8989 97.4997 30.6104C97.4997 30.3164 97.5385 30.0418 97.6162 29.7867C97.6938 29.526 97.8075 29.2985 97.9573 29.1044C98.1126 28.9047 98.3012 28.7494 98.5231 28.6384C98.7506 28.5275 99.0113 28.472 99.3053 28.472C99.6159 28.472 99.8822 28.5275 100.104 28.6384C100.331 28.7438 100.515 28.8908 100.653 29.0794C100.797 29.2625 100.903 29.4649 100.969 29.6868C101.041 29.9087 101.078 30.1334 101.078 30.3608C101.078 30.4052 101.075 30.4634 101.069 30.5355C101.069 30.6076 101.064 30.6687 101.053 30.7186H98.0156C98.0267 31.1901 98.1515 31.5562 98.39 31.8169C98.6341 32.0776 98.9613 32.208 99.3718 32.208C99.6325 32.208 99.8544 32.1691 100.037 32.0915C100.226 32.0083 100.406 31.8724 100.578 31.6838L100.953 32.0166C100.797 32.1775 100.639 32.3078 100.478 32.4077C100.318 32.502 100.146 32.5741 99.9626 32.624C99.7851 32.6684 99.5882 32.6906 99.3718 32.6906ZM100.553 30.4523C100.564 30.4079 100.57 30.3636 100.57 30.3192C100.57 30.2693 100.57 30.2221 100.57 30.1777C100.57 30.0335 100.545 29.8865 100.495 29.7368C100.451 29.587 100.379 29.4511 100.279 29.329C100.179 29.207 100.049 29.1072 99.8877 29.0295C99.7268 28.9518 99.5355 28.913 99.3136 28.913C99.0584 28.913 98.8338 28.9768 98.6396 29.1044C98.451 29.232 98.304 29.4012 98.1986 29.6119C98.0932 29.8227 98.0322 30.0613 98.0156 30.3275H100.728L100.553 30.4523ZM103.333 32.6323V28.5303H103.865V29.6203L103.732 29.6452C103.777 29.3901 103.874 29.1765 104.024 29.0045C104.173 28.8326 104.348 28.7022 104.548 28.6135C104.747 28.5192 104.939 28.472 105.122 28.472C105.233 28.472 105.344 28.4859 105.455 28.5136C105.571 28.5358 105.682 28.5746 105.788 28.6301L105.53 29.1044C105.457 29.0711 105.377 29.0434 105.288 29.0212C105.2 28.999 105.114 28.9879 105.03 28.9879C104.886 28.9879 104.742 29.0156 104.598 29.0711C104.453 29.1266 104.32 29.2153 104.198 29.3374C104.082 29.4539 103.996 29.6119 103.94 29.8116C103.918 29.8948 103.899 29.9975 103.882 30.1195C103.871 30.2415 103.865 30.4107 103.865 30.6271V32.6323H103.333ZM107.805 32.6323V28.5303H108.329V32.6323H107.805ZM107.755 27.7315V26.8329H108.379V27.7315H107.755Z" fill="white"/>
<path d="M50.3207 19.1697C50.1416 18.7547 50.052 18.3307 50.052 17.8964V3.67815C50.052 3.0466 50.1983 2.47061 50.4908 1.95245C50.7833 1.43429 51.1836 1.02611 51.6927 0.729044C52.2018 0.43198 52.7766 0.283447 53.4184 0.283447H61.3813C61.862 0.283447 62.3212 0.412704 62.76 0.672352C63.1988 0.932 63.5469 1.28349 63.8065 1.72682C64.0662 2.17015 64.1954 2.66563 64.1954 3.21214C64.1954 3.74958 64.0662 4.24506 63.8065 4.69746C63.5469 5.14986 63.1988 5.50929 62.76 5.77234C62.3212 6.03652 61.8427 6.16805 61.3246 6.16805H56.7428V7.93683H60.5184C60.9232 7.93683 61.3246 8.0196 61.7203 8.184C62.116 8.34954 62.4561 8.57291 62.7385 8.85637C63.0219 9.10127 63.2385 9.39607 63.3893 9.74076C63.5401 10.0854 63.6161 10.4415 63.6161 10.8088C63.6161 11.5821 63.3145 12.2567 62.7113 12.8316C62.0604 13.3883 61.3393 13.6661 60.5479 13.6661H56.7439V15.4916H61.1001C61.9675 15.4916 62.7169 15.7932 63.3485 16.3975C63.6501 16.6526 63.8768 16.961 64.0276 17.3238C64.1784 17.6867 64.2544 18.062 64.2544 18.4486C64.2544 19.2502 63.9619 19.9294 63.378 20.4861C62.7271 21.061 61.9969 21.349 61.1863 21.349H53.3934C52.7709 21.349 52.1791 21.1528 51.619 20.7616C51.0543 20.3705 50.6235 19.8398 50.3207 19.1697Z" fill="white"/>
<path d="M67.1093 16.8352C66.6853 16.232 66.3293 15.5925 66.0413 14.9179C65.7533 14.2432 65.5367 13.5641 65.3905 12.8804C65.2442 12.1967 65.1716 11.5061 65.1716 10.8077C65.1716 10.1285 65.2442 9.44484 65.3905 8.7566C65.5367 8.06836 65.7556 7.38239 66.0481 6.69869C66.3406 6.01499 66.6944 5.37551 67.1093 4.78138C67.7885 3.79154 68.6083 2.93776 69.5698 2.22118C70.5313 1.5046 71.5857 0.954688 72.7309 0.572586C73.8761 0.190484 75.053 0 76.2594 0C77.1642 0 78.0577 0.108848 78.9398 0.32541C79.8208 0.541973 80.6655 0.86058 81.4716 1.2801C82.2778 1.69962 83.0136 2.20191 83.6781 2.78696C84.3425 3.37202 84.9253 4.03645 85.4242 4.78138C86.7156 6.6488 87.3619 8.65796 87.3619 10.8077C87.3619 11.8735 87.1964 12.9178 86.8664 13.9416C86.5365 14.9655 86.0557 15.9292 85.4242 16.8352C84.9242 17.562 84.33 18.2286 83.6418 18.8375C82.9535 19.4464 82.2302 19.9487 81.4705 20.3444C80.712 20.7401 79.8797 21.0542 78.9738 21.2855C78.069 21.5168 77.1631 21.6324 76.2583 21.6324C75.0507 21.6324 73.8749 21.4442 72.7298 21.0666C71.5846 20.6891 70.5279 20.138 69.5618 19.4112C68.5958 18.6845 67.7783 17.8261 67.1093 16.8352ZM71.8046 10.8088C71.8046 11.7431 72.0052 12.5912 72.4055 13.3554C72.8057 14.1196 73.3432 14.7115 74.0178 15.131C74.6913 15.5505 75.4294 15.7603 76.231 15.7603C76.5145 15.7603 76.8059 15.7319 77.1075 15.6753C77.6449 15.5619 78.1302 15.3635 78.5645 15.0811C78.9976 14.7977 79.382 14.4394 79.7176 14.0063C80.0521 13.572 80.3094 13.089 80.4886 12.5561C80.6677 12.0232 80.7573 11.4506 80.7573 10.8372C80.7573 10.5447 80.729 10.234 80.6723 9.90291C80.5305 9.08201 80.255 8.3745 79.8446 7.78037C79.4341 7.18624 78.9182 6.7191 78.2958 6.38008C77.6733 6.04107 76.9941 5.87099 76.2594 5.87099C75.4385 5.87099 74.689 6.08075 74.011 6.50027C73.3318 6.91979 72.7944 7.51165 72.3987 8.27586C72.003 9.04006 71.8046 9.88476 71.8046 10.8088Z" fill="white"/>
<path d="M89.794 20.5416C89.1148 19.731 88.7758 18.8398 88.7758 17.8681V3.46611C88.7758 2.74952 88.9663 2.10324 89.3484 1.52838C89.7305 0.953529 90.2373 0.538546 90.8689 0.283433C91.2736 0.113358 91.6796 0.0283203 92.0855 0.0283203C93.0946 0.0283203 94.0515 0.556687 94.9563 1.61229L102.31 10.3417V3.46611C102.31 2.53183 102.645 1.73134 103.315 1.06124C103.975 0.410423 104.757 0.085012 105.663 0.085012C106.116 0.085012 106.548 0.167782 106.957 0.332188C107.367 0.497728 107.718 0.740368 108.01 1.06124C108.312 1.35377 108.552 1.71433 108.731 2.14405C108.91 2.57378 109 3.01371 109 3.46724V18.223C109 18.3647 108.981 18.5858 108.943 18.8874C108.849 19.4067 108.639 19.8704 108.314 20.2809C107.989 20.6913 107.595 21.0099 107.133 21.2356C106.67 21.4623 106.171 21.5746 105.634 21.5746C104.992 21.5746 104.413 21.4136 103.894 21.0938C103.517 20.8387 103.239 20.5938 103.06 20.358L95.4654 11.0344V18.1935C95.4654 19.1652 95.14 19.9759 94.4892 20.6267C93.8577 21.2582 93.0935 21.5746 92.1977 21.5746C91.2272 21.5746 90.4267 21.231 89.794 20.5416Z" fill="white"/>
</svg>
