<svg width="25" height="30" viewBox="0 0 25 30" fill="none" xmlns="http://www.w3.org/2000/svg">
<path d="M12.6832 14.9853C14.6818 14.9853 16.9192 14.764 18.3469 13.1327C19.5475 11.7611 19.9369 9.64012 19.5357 6.65487C18.9753 2.4882 16.4133 0 12.6832 0C8.95314 0 6.39119 2.4882 5.83072 6.65782C5.42954 9.64012 5.81892 11.7611 7.01951 13.1327C8.44724 14.7655 10.6847 14.9853 12.6832 14.9853ZM8.02246 6.94985C8.2614 5.17994 9.18323 2.21239 12.6832 2.21239C16.1832 2.21239 17.1051 5.18142 17.344 6.94985C17.6493 9.23599 17.4281 10.8245 16.6803 11.677C16.0092 12.444 14.813 12.7729 12.6832 12.7729C10.5534 12.7729 9.35727 12.444 8.68618 11.677C7.93839 10.8245 7.71715 9.23451 8.02246 6.94985ZM24.8956 25.9292C23.6021 20.7286 18.58 17.0944 12.6832 17.0944C6.78647 17.0944 1.76435 20.7286 0.470839 25.9292C0.217152 26.9499 0.429541 27.9941 1.05343 28.7906C1.6552 29.5575 2.58736 30 3.60948 30H21.757C22.7791 30 23.7113 29.5575 24.313 28.7906C24.9384 27.9941 25.1493 26.9513 24.8941 25.9292H24.8956ZM22.5711 27.4277C22.3853 27.6637 22.1051 27.7906 21.757 27.7906H3.60948C3.26287 27.7906 2.98116 27.6652 2.79532 27.4277C2.59326 27.1711 2.52984 26.8201 2.61833 26.4631C3.66553 22.2522 7.80565 19.3097 12.6832 19.3097C17.5608 19.3097 21.7009 22.2507 22.7481 26.4631C22.8366 26.8201 22.7732 27.1711 22.5711 27.4277Z" fill="#18191E"/>
</svg>
