<svg width="18" height="16" viewBox="0 0 18 16" fill="none" xmlns="http://www.w3.org/2000/svg">
<path d="M15.98 1C15.4409 1 15.0041 1.40746 14.9671 1.92187L7.25 4.01664V10.6973L14.9671 12.792C15.004 13.3067 15.4408 13.7172 15.98 13.7172C16.5433 13.7172 17 13.2705 17 12.7235V1.99044C17 1.44343 16.5433 1 15.98 1ZM5.77437 10.5937H6.58333V4.12022H2.36334C1.61334 4.12022 1 4.71255 1 5.44405V9.26664C1 9.99812 1.61334 10.5937 2.36334 10.5937H2.8045L4.14667 14.9892C4.19 15.1284 4.32001 15.2222 4.46667 15.2222H6.74666C6.85 15.2222 6.94999 15.1737 7.01333 15.0928C7.07666 15.0118 7.09334 14.905 7.06333 14.8079L5.77437 10.5937Z" stroke="#73767D" stroke-width="1.5"/>
</svg>
