<svg width="38" height="46" viewBox="0 0 38 46" fill="none" xmlns="http://www.w3.org/2000/svg">
<path d="M8 15.75V26.75C8 27.4793 8.28973 28.1788 8.80546 28.6945C9.32118 29.2103 10.0207 29.5 10.75 29.5H27.25C27.9793 29.5 28.6788 29.2103 29.1945 28.6945C29.7103 28.1788 30 27.4793 30 26.75V15.75M24.5 7.5L19 2M19 2L13.5 7.5M19 2V19.875" stroke="white" stroke-width="2.7" stroke-linecap="round" stroke-linejoin="round"/>
<path d="M2.29033 43.5V35.136H5.05033C5.99433 35.136 6.70633 35.34 7.18633 35.748C7.66633 36.148 7.90633 36.752 7.90633 37.56C7.90633 38.368 7.66233 38.984 7.17433 39.408C6.68633 39.832 5.97833 40.044 5.05033 40.044H3.82633V43.5H2.29033ZM3.82633 38.664H4.89433C5.35833 38.664 5.71833 38.584 5.97433 38.424C6.23033 38.256 6.35833 37.972 6.35833 37.572C6.35833 37.188 6.23433 36.92 5.98633 36.768C5.74633 36.608 5.38233 36.528 4.89433 36.528H3.82633V38.664ZM12.6783 43.5L12.5583 42.612V39.768C12.5583 39.416 12.4463 39.156 12.2223 38.988C12.0063 38.812 11.7103 38.724 11.3343 38.724C11.0223 38.724 10.7023 38.788 10.3743 38.916C10.0543 39.036 9.7703 39.208 9.5223 39.432L8.7663 38.412C9.1823 38.076 9.6063 37.836 10.0383 37.692C10.4783 37.54 10.9503 37.464 11.4543 37.464C12.2703 37.464 12.9063 37.668 13.3623 38.076C13.8183 38.484 14.0463 39.048 14.0463 39.768V43.5H12.6783ZM10.8903 43.62C10.4583 43.62 10.0703 43.54 9.7263 43.38C9.3903 43.22 9.1223 42.992 8.9223 42.696C8.7303 42.4 8.6343 42.06 8.6343 41.676C8.6343 41.332 8.7023 41.04 8.8383 40.8C8.9823 40.552 9.1703 40.364 9.4023 40.236C9.6023 40.116 9.8223 40.032 10.0623 39.984C10.3103 39.936 10.5743 39.912 10.8543 39.912H12.6903V41.016H11.0703C10.9423 41.016 10.8143 41.028 10.6863 41.052C10.5663 41.068 10.4623 41.112 10.3743 41.184C10.2943 41.24 10.2343 41.312 10.1943 41.4C10.1543 41.48 10.1343 41.572 10.1343 41.676C10.1343 41.9 10.2223 42.08 10.3983 42.216C10.5743 42.352 10.8103 42.42 11.1063 42.42C11.3703 42.42 11.6103 42.364 11.8263 42.252C12.0503 42.132 12.2263 41.972 12.3543 41.772C12.4903 41.564 12.5583 41.328 12.5583 41.064L12.9543 41.856C12.8503 42.272 12.6903 42.612 12.4743 42.876C12.2663 43.132 12.0263 43.32 11.7543 43.44C11.4823 43.56 11.1943 43.62 10.8903 43.62ZM15.753 45.948L16.953 43.044L14.721 37.584H16.353L17.745 41.556L19.161 37.584H20.769L17.373 45.948H15.753ZM23.0749 43.62C22.6669 43.62 22.3309 43.496 22.0669 43.248C21.8029 43 21.6709 42.608 21.6709 42.072V35.136H23.1469V41.784C23.1469 41.952 23.1869 42.072 23.2669 42.144C23.3469 42.208 23.4509 42.24 23.5789 42.24C23.6429 42.24 23.7109 42.236 23.7829 42.228C23.8549 42.212 23.9309 42.192 24.0109 42.168V43.44C23.8429 43.504 23.6749 43.548 23.5069 43.572C23.3469 43.604 23.2029 43.62 23.0749 43.62ZM28.8267 43.5L28.7067 42.612V39.768C28.7067 39.416 28.5947 39.156 28.3707 38.988C28.1547 38.812 27.8587 38.724 27.4827 38.724C27.1707 38.724 26.8507 38.788 26.5227 38.916C26.2027 39.036 25.9187 39.208 25.6707 39.432L24.9147 38.412C25.3307 38.076 25.7547 37.836 26.1867 37.692C26.6267 37.54 27.0987 37.464 27.6027 37.464C28.4187 37.464 29.0547 37.668 29.5107 38.076C29.9667 38.484 30.1947 39.048 30.1947 39.768V43.5H28.8267ZM27.0387 43.62C26.6067 43.62 26.2187 43.54 25.8747 43.38C25.5387 43.22 25.2707 42.992 25.0707 42.696C24.8787 42.4 24.7827 42.06 24.7827 41.676C24.7827 41.332 24.8507 41.04 24.9867 40.8C25.1307 40.552 25.3187 40.364 25.5507 40.236C25.7507 40.116 25.9707 40.032 26.2107 39.984C26.4587 39.936 26.7227 39.912 27.0027 39.912H28.8387V41.016H27.2187C27.0907 41.016 26.9627 41.028 26.8347 41.052C26.7147 41.068 26.6107 41.112 26.5227 41.184C26.4427 41.24 26.3827 41.312 26.3427 41.4C26.3027 41.48 26.2827 41.572 26.2827 41.676C26.2827 41.9 26.3707 42.08 26.5467 42.216C26.7227 42.352 26.9587 42.42 27.2547 42.42C27.5187 42.42 27.7587 42.364 27.9747 42.252C28.1987 42.132 28.3747 41.972 28.5027 41.772C28.6387 41.564 28.7067 41.328 28.7067 41.064L29.1027 41.856C28.9987 42.272 28.8387 42.612 28.6227 42.876C28.4147 43.132 28.1747 43.32 27.9027 43.44C27.6307 43.56 27.3427 43.62 27.0387 43.62ZM33.6375 43.62C33.1975 43.62 32.8135 43.556 32.4855 43.428C32.1575 43.3 31.8775 43.14 31.6455 42.948C31.4215 42.756 31.2415 42.572 31.1055 42.396L32.1255 41.508C32.2615 41.732 32.4535 41.94 32.7015 42.132C32.9575 42.316 33.2735 42.408 33.6495 42.408C33.9455 42.408 34.1735 42.352 34.3335 42.24C34.5015 42.12 34.5855 41.972 34.5855 41.796C34.5855 41.652 34.5335 41.536 34.4295 41.448C34.3255 41.352 34.1855 41.276 34.0095 41.22C33.8335 41.156 33.6375 41.096 33.4215 41.04C33.1975 40.976 32.9655 40.904 32.7255 40.824C32.4855 40.744 32.2655 40.64 32.0655 40.512C31.8655 40.376 31.7015 40.204 31.5735 39.996C31.4535 39.788 31.3935 39.528 31.3935 39.216C31.3935 38.696 31.5975 38.276 32.0055 37.956C32.4135 37.628 32.9535 37.464 33.6255 37.464C34.0975 37.464 34.5255 37.56 34.9095 37.752C35.2935 37.936 35.5975 38.204 35.8215 38.556L34.8975 39.288C34.7535 39.056 34.5615 38.884 34.3215 38.772C34.0895 38.652 33.8415 38.592 33.5775 38.592C33.3455 38.592 33.1535 38.636 33.0015 38.724C32.8575 38.812 32.7855 38.932 32.7855 39.084C32.7855 39.188 32.8175 39.276 32.8815 39.348C32.9535 39.42 33.0655 39.484 33.2175 39.54C33.3775 39.588 33.5855 39.644 33.8415 39.708C34.0815 39.764 34.3295 39.832 34.5855 39.912C34.8415 39.992 35.0815 40.1 35.3055 40.236C35.5295 40.372 35.7095 40.552 35.8455 40.776C35.9815 41 36.0495 41.284 36.0495 41.628C36.0495 42.02 35.9495 42.368 35.7495 42.672C35.5495 42.968 35.2695 43.2 34.9095 43.368C34.5495 43.536 34.1255 43.62 33.6375 43.62ZM33.4215 45.948C33.3255 45.948 33.2055 45.936 33.0615 45.912C32.9255 45.896 32.7855 45.864 32.6415 45.816C32.5055 45.776 32.3895 45.724 32.2935 45.66L32.6775 45.048C32.7815 45.104 32.8935 45.148 33.0135 45.18C33.1335 45.22 33.2455 45.24 33.3495 45.24C33.4855 45.24 33.6015 45.212 33.6975 45.156C33.7935 45.1 33.8415 45.008 33.8415 44.88C33.8415 44.776 33.8015 44.692 33.7215 44.628C33.6495 44.564 33.5495 44.516 33.4215 44.484C33.2935 44.452 33.1535 44.432 33.0015 44.424C32.8575 44.416 32.7135 44.412 32.5695 44.412L33.3135 43.368L34.0215 43.38L33.5775 43.932C33.9215 43.98 34.1935 44.084 34.3935 44.244C34.6015 44.404 34.7055 44.62 34.7055 44.892C34.7055 45.212 34.5815 45.468 34.3335 45.66C34.0935 45.852 33.7895 45.948 33.4215 45.948Z" fill="white"/>
</svg>
