<svg width="31" height="30" viewBox="0 0 31 30" fill="none" xmlns="http://www.w3.org/2000/svg">
<path d="M30.0487 27.1413L24.3839 21.4931C26.2116 19.1646 27.2033 16.2892 27.1996 13.329C27.1996 10.6928 26.4179 8.11578 24.9533 5.92383C23.4887 3.73188 21.407 2.02346 18.9714 1.01462C16.5358 0.00577522 13.8558 -0.258184 11.2702 0.25612C8.68466 0.770423 6.30965 2.03989 4.44556 3.90399C2.58146 5.76809 1.31199 8.1431 0.797685 10.7287C0.283381 13.3143 0.54734 15.9943 1.55618 18.4298C2.56503 20.8654 4.27344 22.9471 6.46539 24.4117C8.65734 25.8763 11.2344 26.6581 13.8706 26.6581C16.8307 26.6618 19.7062 25.67 22.0346 23.8423L27.6828 29.5072C27.8377 29.6633 28.022 29.7873 28.225 29.8719C28.4281 29.9565 28.6458 30 28.8658 30C29.0857 30 29.3035 29.9565 29.5065 29.8719C29.7096 29.7873 29.8938 29.6633 30.0487 29.5072C30.2049 29.3523 30.3288 29.168 30.4134 28.965C30.498 28.7619 30.5416 28.5442 30.5416 28.3242C30.5416 28.1043 30.498 27.8865 30.4134 27.6835C30.3288 27.4804 30.2049 27.2961 30.0487 27.1413ZM3.87383 13.329C3.87383 11.3519 4.46013 9.41909 5.55859 7.77513C6.65705 6.13117 8.21833 4.84986 10.045 4.09322C11.8717 3.33659 13.8817 3.13862 15.8209 3.52435C17.7601 3.91008 19.5413 4.86218 20.9394 6.26025C22.3375 7.65833 23.2896 9.43958 23.6753 11.3788C24.061 13.318 23.8631 15.328 23.1064 17.1546C22.3498 18.9813 21.0685 20.5426 19.4245 21.6411C17.7806 22.7395 15.8478 23.3258 13.8706 23.3258C11.2193 23.3258 8.67658 22.2726 6.80182 20.3978C4.92706 18.5231 3.87383 15.9804 3.87383 13.329Z" fill="white"/>
</svg>
