<svg width="26" height="25" viewBox="0 0 26 25" fill="none" xmlns="http://www.w3.org/2000/svg">
<path d="M12.5118 4.20026e-08C10.0372 4.20026e-08 7.61817 0.714988 5.56062 2.05455C3.50306 3.39411 1.8994 5.29808 0.952409 7.52569C0.00542116 9.75329 -0.242354 12.2045 0.240416 14.5693C0.723186 16.9341 1.91482 19.1063 3.66462 20.8113C5.41443 22.5162 7.64381 23.6773 10.0709 24.1477C12.4979 24.6181 15.0136 24.3767 17.2998 23.454C19.5861 22.5312 21.5401 20.9687 22.915 18.9639C24.2898 16.9591 25.0236 14.6021 25.0236 12.191C25.0237 10.59 24.7002 9.00467 24.0714 7.52553C23.4427 6.04639 22.5211 4.70242 21.3593 3.57036C20.1974 2.43829 18.8181 1.54032 17.3 0.927712C15.7819 0.315105 14.1549 -0.000132856 12.5118 4.20026e-08ZM16.4899 18.4723C16.4431 18.5861 16.3718 18.6888 16.2809 18.7736C16.19 18.8583 16.0816 18.9232 15.9629 18.9637C15.8441 19.0043 15.7179 19.0197 15.5926 19.0089C15.4673 18.998 15.3458 18.9612 15.2362 18.9008L11.8397 16.3293L9.65975 18.2889C9.60917 18.3253 9.55 18.3487 9.48769 18.357C9.42538 18.3653 9.36192 18.3582 9.30317 18.3364L9.72106 14.6931L9.73444 14.7035L9.74298 14.6316C9.74298 14.6316 15.855 9.20961 16.104 8.9786C16.3561 8.74819 16.2729 8.69821 16.2729 8.69821C16.2872 8.41717 15.8206 8.69821 15.8206 8.69821L7.72228 13.7746L4.34974 12.6554C4.34974 12.6554 3.83175 12.4744 3.78296 12.0764C3.73166 11.6814 4.36662 11.4668 4.36662 11.4668L17.7755 6.27651C17.7755 6.27651 18.8778 5.79799 18.8778 6.59044L16.4899 18.4723Z" fill="white"/>
</svg>
