<svg width="25" height="24" viewBox="0 0 25 24" fill="none" xmlns="http://www.w3.org/2000/svg">
<path fill-rule="evenodd" clip-rule="evenodd" d="M19.5 14C19.5 14.5523 19.9477 15 20.5 15C21.0523 15 21.5 14.5523 21.5 14C21.5 9.02944 17.4706 5 12.5 5C7.52944 5 3.5 9.02944 3.5 14C3.5 14.5523 3.94772 15 4.5 15C5.05229 15 5.5 14.5523 5.5 14C5.5 10.134 8.63401 7 12.5 7C16.366 7 19.5 10.134 19.5 14ZM12.5 16C14.1569 16 15.5 14.6569 15.5 13C15.5 11.3431 14.1569 10 12.5 10C10.8431 10 9.5 11.3431 9.5 13C9.5 14.6569 10.8431 16 12.5 16Z" fill="#18191E" fill-opacity="0.8"/>
</svg>
