<svg width="25" height="25" viewBox="0 0 25 25" fill="none" xmlns="http://www.w3.org/2000/svg">
<path fill-rule="evenodd" clip-rule="evenodd" d="M19.8824 24.948C22.6685 24.948 24.948 22.6685 24.948 19.8824V5.06558C24.948 2.27954 22.6685 0 19.8824 0H5.06558C2.27949 0 0 2.27954 0 5.06558V19.8824C0 22.6685 2.27949 24.948 5.06558 24.948H19.8824ZM20.3419 3.75L14.3408 11.2295L22.3383 21.1973H16.6084L11.4756 14.8003L6.34338 21.1973H4.60516L10.6068 13.7173L2.60986 3.75H8.33976L13.472 10.1464L18.6037 3.75H20.3419ZM7.68895 5.10581H5.43549L17.2587 19.8414H19.5121L7.68895 5.10581Z" fill="white"/>
</svg>
